<svg width="25" height="24" viewBox="0 0 25 24" fill="none" xmlns="http://www.w3.org/2000/svg">
<path d="M5.07693 4.66665L4.14802 1.05127H1.46155" stroke="white" stroke-width="1.80769" stroke-linecap="round" stroke-linejoin="round"/>
<path fill-rule="evenodd" clip-rule="evenodd" d="M7.4089 15.66L5.0769 4.6665H21.8297C22.6728 4.6665 23.3001 5.45252 23.1241 6.28673L21.1362 15.66C21.0052 16.2772 20.4665 16.7178 19.8418 16.7178H8.70196C8.07859 16.7178 7.53993 16.2772 7.4089 15.66Z" stroke="white" stroke-width="1.80769" stroke-linecap="round" stroke-linejoin="round"/>
<path d="M20.1386 21.6892C19.8892 21.6892 19.6867 21.8917 19.6891 22.1411C19.6891 22.3906 19.8916 22.5931 20.141 22.5931C20.3905 22.5931 20.5929 22.3906 20.5929 22.1411C20.5917 21.8917 20.3893 21.6892 20.1386 21.6892" stroke="white" stroke-width="1.80769" stroke-linecap="round" stroke-linejoin="round"/>
<path d="M9.29303 21.6892C9.04357 21.6892 8.8411 21.8917 8.84351 22.1411C8.84231 22.3906 9.04477 22.5931 9.29423 22.5931C9.54369 22.5931 9.74616 22.3906 9.74616 22.1411C9.74616 21.8917 9.54369 21.6892 9.29303 21.6892" stroke="white" stroke-width="1.80769" stroke-linecap="round" stroke-linejoin="round"/>
</svg>
