<svg width="412" height="253" viewBox="0 0 412 253" fill="none" xmlns="http://www.w3.org/2000/svg">
<path d="M2.4928 79.7417C2.4928 79.7417 7.9794 74.726 11.1799 68.7983C14.3804 62.8705 27.1825 49.6471 27.1825 49.6471C27.1825 49.6471 27.6397 45.0873 31.7546 41.8955C35.8695 38.7036 39.5273 31.408 39.5273 31.408C39.5273 31.408 31.2974 30.952 27.1825 22.7443C27.1825 22.7443 19.867 4.50518 16.6665 1.76931C16.6665 1.76931 15.752 -0.510588 21.2386 4.0492C26.7252 8.609 31.7546 16.8166 31.7546 16.8166C31.7546 16.8166 33.5835 19.5525 34.9551 18.6405C36.3268 17.7286 34.9551 16.8166 34.4979 14.0807L31.7546 1.31333C31.7546 1.31333 31.2974 -2.33451 34.4979 4.96116C37.6984 12.2568 39.07 15.9047 50.5004 21.3764C50.5004 21.3764 56.9014 19.5525 60.5592 25.0242C60.5592 25.0242 77.9334 26.8482 81.5911 26.8482C85.2488 27.3041 95.3076 26.3922 104.452 23.6563C111.767 20.9204 124.112 20.4645 141.029 22.2884L140.115 23.2003L139.657 23.6563L138.743 25.0242L141.029 26.8482L141.944 25.4802L142.401 25.0242L143.315 23.6563L141.486 21.8324C144.687 22.2884 148.345 22.7443 152.46 23.2003C175.32 26.3922 199.553 30.952 223.328 31.408C247.103 31.8639 256.247 32.7759 275.908 27.3041C295.568 21.8324 314.314 21.3764 333.06 20.4644C351.805 20.0085 385.639 20.9204 394.326 31.8639C394.326 31.8639 401.185 42.3514 402.556 58.3107C403.928 74.27 404.385 92.0532 403.014 104.821C402.099 117.588 399.813 136.739 404.842 150.875C409.872 164.554 411.701 171.85 411.701 178.233C411.701 184.617 410.786 186.897 410.786 186.897C410.786 186.897 411.243 204.224 407.586 204.68C407.586 204.68 402.099 200.12 402.099 182.793V171.85C402.099 171.85 402.556 163.642 398.899 150.875C395.698 138.107 396.155 130.811 396.155 124.428C396.155 124.428 397.984 98.4369 397.527 91.1412C397.527 91.1412 396.613 100.261 392.04 110.292C387.925 120.324 378.324 143.579 382.896 152.698C387.468 161.818 390.212 168.202 392.498 169.57C392.498 169.57 397.527 175.953 397.07 179.601C396.613 183.249 397.527 185.073 395.698 187.353C395.698 187.353 394.784 223.831 394.326 226.567C393.869 229.303 393.869 236.599 390.212 236.599C386.554 236.599 387.925 233.407 386.554 234.775C385.182 236.143 383.811 237.055 384.268 239.334C384.725 241.614 385.639 250.278 380.153 250.734H379.696C373.752 250.734 360.035 253.014 355.92 250.278C355.92 250.278 359.121 244.806 363.236 240.702C363.236 240.702 362.779 236.599 366.894 230.671C371.009 224.743 376.952 211.976 371.466 196.016C366.436 180.057 349.977 169.114 349.977 169.114C349.977 169.114 349.062 169.57 350.434 172.306C351.805 175.041 355.006 178.689 353.634 182.337C351.805 185.529 349.977 187.809 348.148 191.913C347.691 193.281 345.404 197.84 343.118 202.856V200.12L338.546 199.664V202.856L342.661 203.312C339.003 211.976 334.431 222.007 334.431 224.743C333.974 228.847 333.517 236.599 327.116 236.143C327.116 236.143 325.287 236.143 325.287 238.878C325.287 241.614 325.287 243.894 325.287 243.894C325.287 243.894 325.287 251.646 318.429 251.646C311.57 251.646 297.397 254.838 296.025 251.19C294.654 247.542 301.512 244.806 303.341 239.334C305.627 233.407 305.627 231.583 307.913 230.215C307.913 230.215 317.514 210.152 319.343 204.224C321.172 198.296 326.659 181.425 319.343 165.466C319.343 165.466 312.028 152.698 311.57 147.227C311.57 147.227 266.763 163.186 262.191 164.554C258.076 165.922 248.475 169.114 246.189 170.482C243.903 172.306 238.416 170.938 237.959 168.658C237.502 166.378 237.502 165.466 230.186 166.378C222.871 167.29 205.496 169.57 167.09 165.01L166.633 174.585C166.633 174.585 165.719 185.529 162.518 192.369C162.518 192.369 161.147 194.648 162.061 201.488C162.975 208.328 167.09 227.479 160.689 232.039C160.689 232.039 159.775 232.495 160.689 234.775C161.604 236.599 162.518 238.423 162.061 241.614C161.604 244.806 161.147 245.718 161.147 245.718C161.147 245.718 157.489 246.63 153.374 246.174C153.374 246.174 150.631 246.174 147.887 247.542C145.144 248.91 136 250.734 128.684 248.91V248.454C128.684 248.454 127.77 248.454 129.141 246.174L134.171 238.423C134.171 238.423 134.171 234.775 136.914 230.671C139.657 226.567 142.401 219.727 142.401 212.432V205.136C142.401 205.136 141.944 198.296 136.914 190.089C132.799 183.249 130.97 167.29 130.97 167.29C130.97 167.29 130.513 166.378 128.227 165.466C125.941 165.01 104.452 157.258 100.337 138.563C100.337 138.563 97.1364 131.723 90.2782 126.252C83.42 120.78 74.2756 106.189 74.2756 106.189C74.2756 106.189 72.904 103.453 68.3318 103.453C63.7597 103.453 58.7303 103.453 58.7303 103.453C58.7303 103.453 43.6422 104.365 33.5835 97.069C33.5835 97.069 32.2118 96.613 29.4685 96.613H23.5247C23.5247 96.613 21.2386 96.157 19.867 97.5249C19.867 97.5249 14.8376 99.8048 10.2655 96.613L1.12115 89.7733C2.4928 88.8613 -2.99377 84.7575 2.4928 79.7417ZM160.232 134.459L164.804 134.915V131.723L160.232 131.267V134.459ZM168.462 134.915L173.034 135.371V132.179L168.462 131.723V134.915ZM170.291 106.189V109.38H174.863V106.189H170.291ZM178.521 106.645V109.836H181.721V106.645H178.521ZM180.35 122.148L183.093 123.06L183.55 121.692C183.55 121.236 184.007 120.78 184.007 120.324L184.465 118.956L181.721 118.044L181.264 119.412C181.264 119.868 180.807 120.324 180.807 120.78L180.35 122.148ZM186.751 37.7917C186.751 37.3357 186.293 36.8797 186.293 36.4237L185.836 35.0558L183.093 35.9677L183.55 37.3357C183.55 37.7917 184.007 38.2476 184.007 38.7036L184.465 40.0716L187.208 39.1596L186.751 37.7917ZM189.037 45.9993C189.037 45.5433 188.58 45.0873 188.58 44.1754L188.122 42.8074L185.379 43.7194L185.836 45.0873C185.836 45.5433 186.293 45.9993 186.293 46.4553L186.751 47.8232L189.494 47.3672L189.037 45.9993ZM187.665 84.7575V86.1255C187.665 86.5814 187.665 87.0374 187.665 87.9494V89.3173L189.951 89.7733V88.4054C189.951 87.9494 189.951 87.4934 189.951 86.5814V85.2135L187.665 84.7575ZM190.866 81.1097V79.7417C190.866 79.2858 190.866 78.8298 190.866 77.9178V76.5499L187.665 76.0939V77.4619C187.665 77.9178 187.665 78.3738 187.665 79.2858V80.6537L190.866 81.1097ZM186.293 92.9651L185.836 94.3331C185.836 94.7891 185.836 95.245 185.379 96.157L184.922 97.5249L187.665 97.9809L188.122 96.613C188.122 96.157 188.122 95.701 188.58 94.7891L189.037 93.4211L186.293 92.9651ZM190.866 54.2069C190.866 53.7509 190.866 53.295 190.408 52.383L189.951 51.0151L187.208 51.471L187.665 53.295C187.665 53.7509 187.665 54.2069 188.122 54.6629V56.0308L190.866 55.5749V54.2069ZM191.323 62.8705C191.323 62.4145 191.323 61.9586 191.323 61.0466V59.6787H188.122V61.0466C188.122 61.5026 188.122 61.9586 188.122 62.8705V64.2385H191.323V62.8705ZM189.037 68.3423V69.7102C189.037 70.1662 189.037 70.6222 189.037 71.0782V72.4461H192.237V71.0782C192.237 70.6222 192.237 69.7102 192.237 69.2542V67.8863L189.037 68.3423ZM216.927 96.157H220.127V91.5972H216.927V96.157ZM216.927 87.9494H220.127V83.3896H216.927V87.9494ZM217.384 79.2858H220.585V74.726H217.384V79.2858ZM217.384 71.0782H220.585V66.5184H217.384V71.0782ZM217.384 62.4145H220.585V57.8547H217.384V62.4145ZM217.841 54.2069H221.042V49.6471H217.841V54.2069ZM217.841 45.5433H221.042V40.9835H217.841V45.5433ZM218.299 33.6879V37.3357H221.499V33.6879H218.299ZM258.533 97.5249H261.734V92.9651H258.533V97.5249ZM258.533 88.8613H261.734V84.3015H258.533V88.8613ZM258.533 80.6537H261.734V76.0939H258.533V80.6537ZM258.533 71.9901H261.734V67.4303H258.533V71.9901ZM258.533 63.7825H261.734V59.2227H258.533V63.7825ZM258.991 55.5749H262.191V51.0151H258.991V55.5749ZM258.991 46.9112H262.191V42.3515H258.991V46.9112ZM258.991 34.1438V38.7036H262.191V34.1438H258.991ZM265.849 62.8705V66.0624H270.421V62.8705H265.849ZM274.079 62.8705V66.0624H278.651V62.8705H274.079ZM282.766 62.8705V66.0624H287.338V62.8705H282.766ZM291.453 58.3107C291.453 58.7667 291.453 59.2227 291.453 60.1346V61.5026H294.654V60.1346C294.654 59.6787 294.654 59.2227 294.654 58.3107V56.9428H291.453V58.3107ZM295.568 77.9178V76.5499C295.568 76.0939 295.568 75.6379 295.568 74.726V73.358L292.367 73.814V75.182C292.367 75.6379 292.367 76.0939 292.367 77.0059V78.3738L295.568 77.9178ZM293.282 82.0216V83.3896C293.282 83.8456 293.282 84.3015 293.739 85.2135L294.196 86.5814L296.94 86.1255L296.482 84.7575C296.482 84.3016 296.482 83.8456 296.025 83.3896V82.0216H293.282ZM295.111 69.7102V68.3423C295.111 67.8863 295.111 67.4303 295.111 66.5184V65.1504H291.91V66.5184C291.91 66.9743 291.91 67.4303 291.91 68.3423V69.7102H295.111ZM291.91 49.6471C291.91 50.1031 291.91 50.5591 291.91 51.471V52.839H295.111V51.471C295.111 51.0151 295.111 50.5591 295.111 49.6471V48.2792L291.91 47.8232V49.6471ZM293.282 40.9835C293.282 41.4395 293.282 41.8955 292.825 42.8074V44.1754L295.568 44.6313L296.025 43.2634C296.025 42.8074 296.025 42.3515 296.482 41.8955L296.94 40.5275L294.196 40.0716L293.282 40.9835ZM295.111 32.7759C295.111 33.2319 294.654 33.6878 294.654 34.5998L294.196 35.9677L297.397 36.8797V35.0558C297.397 34.5998 297.854 34.1438 297.854 33.6879L298.311 32.3199L295.568 31.408L295.111 32.7759ZM299.226 23.2003L298.311 24.5683C298.311 24.5683 297.854 25.0242 297.397 25.9362L296.94 27.3041L299.683 28.6721L300.14 27.3041C300.597 26.3922 300.597 25.9362 300.597 25.9362L301.512 24.5683L299.226 23.2003ZM302.426 110.748L301.969 109.38C301.969 108.924 301.512 108.468 301.512 108.012L301.055 106.645L298.311 107.556L298.768 108.924C298.768 109.38 299.226 109.836 299.226 110.292L299.683 111.66L302.426 110.748ZM300.597 115.308L301.055 116.676C301.055 117.132 301.512 117.588 301.512 118.044L301.969 119.412L304.712 118.5L304.255 117.132C304.255 116.676 303.798 116.22 303.798 115.764L303.341 114.396L300.597 115.308ZM301.512 74.726H302.883V71.5341H301.512C301.055 71.5341 300.597 71.5341 300.597 71.5341C300.14 71.5341 300.14 71.5341 300.14 71.5341L299.226 74.27C299.226 74.27 299.683 74.27 300.14 74.27C301.055 74.726 301.512 74.726 301.512 74.726ZM305.627 47.3672H304.255C303.341 47.3672 302.883 47.3672 302.883 47.3672H301.512V50.5591H302.883C302.883 50.5591 303.341 50.5591 304.712 50.5591H306.084L305.627 47.3672ZM320.715 42.3515L319.343 42.8074C318.886 42.8074 318.429 43.2634 317.972 43.2634L316.6 43.7194L317.972 46.4553L319.343 45.9993C319.8 45.9993 320.258 45.5433 320.715 45.0873L322.086 44.6313L320.715 42.3515ZM315.228 70.6222L315.685 73.814L320.258 73.358L319.8 70.1662L315.228 70.6222ZM327.573 37.7917L326.201 38.7036C325.744 39.1596 325.287 39.1596 324.83 39.6156L323.458 40.5275L325.287 42.8074L326.659 41.8955C327.116 41.4395 327.573 40.9835 328.03 40.9835L329.402 40.0716L327.573 37.7917ZM323.458 70.1662L323.915 73.358L328.487 72.9021L328.03 69.7102L323.458 70.1662ZM328.487 136.283L327.573 139.019L328.945 139.931C328.945 139.931 329.402 139.931 330.774 140.387L332.145 140.843L332.602 138.107L331.231 137.651C330.316 137.651 329.859 137.195 329.859 137.195L328.487 136.283ZM331.688 152.242L334.888 155.434L337.175 153.61L333.974 150.419L331.688 152.242ZM336.717 71.5341L336.26 68.3423L331.688 68.7983L332.145 71.9901L336.717 71.5341ZM331.688 32.7759C331.231 33.2319 331.231 33.6878 330.774 34.1438L329.859 35.5118L332.145 37.3357L333.06 35.9677C333.517 35.5118 333.517 35.0558 333.974 34.5998L334.888 33.2319L332.602 31.408L331.688 32.7759ZM335.803 24.5683L335.346 25.9362C335.346 26.3922 334.888 26.8482 334.888 27.3041L334.431 28.6721L337.175 29.584L337.632 28.2161C337.632 27.7601 338.089 27.3041 338.089 26.8482L338.546 25.4802L335.803 24.5683ZM337.632 138.563H336.26L335.803 141.299H337.175C337.632 141.299 338.089 141.299 339.003 141.299H340.375L340.832 138.563H339.461C339.003 138.563 338.089 138.563 337.632 138.563ZM344.49 121.236V119.868C344.49 119.412 344.49 118.956 344.49 118.044V116.676H341.289V118.044C341.289 118.5 341.289 118.956 341.289 119.868V121.236H344.49ZM341.747 124.884V126.252C341.747 126.708 341.747 127.164 341.747 128.076V129.443H344.947V128.076C344.947 127.62 344.947 127.164 344.947 126.252V124.884H341.747ZM344.49 75.182L341.747 74.726L341.289 76.0939C341.289 76.0939 341.289 76.5499 340.832 77.9178L340.375 79.2858L343.118 79.7417L343.576 78.3738C343.576 77.4619 344.033 77.0059 344.033 77.0059L344.49 75.182ZM344.033 112.572V111.204C344.033 110.748 344.033 110.292 344.033 109.38V108.012L340.832 108.468V109.836C340.832 110.292 340.832 110.748 340.832 111.66V113.028L344.033 112.572ZM343.118 104.365V102.997C343.118 102.541 343.118 102.085 343.118 101.173V99.8048H339.918V101.173C339.918 101.629 339.918 102.085 339.918 102.997V104.365H343.118ZM339.918 92.9651C339.918 93.4211 339.918 93.4211 339.918 93.8771C339.918 94.3331 339.918 94.3331 339.918 94.7891V96.157H343.118V94.7891C343.118 94.3331 343.118 94.3331 343.118 93.8771C343.118 93.4211 343.118 93.4211 343.118 92.9651V91.5972H339.918V92.9651ZM340.375 86.1255V87.4934H343.576V86.1255C343.576 85.6695 343.576 85.2135 343.576 84.3015V82.9336L340.375 82.4776V83.8456C340.375 84.7575 340.375 85.6695 340.375 86.1255ZM344.947 67.8863L340.375 68.3423L340.832 71.5341L345.404 71.0782L344.947 67.8863ZM345.404 134.915V133.547H342.204V134.915C342.204 135.371 342.204 135.827 342.204 135.827H343.576L344.49 136.739C345.404 136.283 345.404 136.283 345.404 134.915ZM371.923 118.044C371.923 118.5 371.466 118.956 371.466 119.868L371.009 121.236L373.752 121.692L374.209 120.324C374.209 119.868 374.666 119.412 374.666 118.956L375.123 117.588L372.38 116.676L371.923 118.044ZM370.094 124.884V126.252C370.094 126.708 370.094 127.164 369.637 128.076V129.443L372.38 129.899V128.532C372.38 128.076 372.38 127.62 372.38 127.164V125.796L370.094 124.884ZM376.495 113.94L376.952 112.572C376.952 112.116 377.41 111.66 377.41 111.204L377.867 109.836L375.123 108.468L374.666 109.836C374.666 110.292 374.209 110.748 374.209 111.204L373.752 112.572L376.495 113.94ZM378.781 65.1504H377.41C376.952 65.1504 376.495 65.1504 375.581 65.1504H374.209V68.3423H375.581C376.038 68.3423 376.495 68.3423 377.41 68.3423H378.781V65.1504ZM378.324 102.085C377.867 102.541 377.867 102.997 377.41 103.453L376.495 104.821L379.696 106.645L380.61 105.277C381.067 104.821 381.067 104.365 381.524 103.909L382.439 102.541L379.696 101.173L378.324 102.085ZM385.639 65.1504C385.182 65.1504 384.725 65.1504 383.811 65.1504H382.439V68.3423H383.811C384.268 68.3423 384.725 68.3423 385.639 68.3423H387.011V65.1504H385.639ZM394.326 87.0374L395.698 86.1255C396.613 85.6695 397.07 85.2135 397.07 85.2135L397.984 83.8456L396.155 81.5657L394.784 82.4776C394.784 82.4776 394.326 82.9336 393.412 83.3896L392.04 84.3015L394.326 87.0374ZM392.04 68.3423C392.498 68.3423 392.955 68.3423 393.412 68.3423H394.784L395.241 65.6064H393.869C393.412 65.6064 392.955 65.6064 392.04 65.6064H390.669L390.212 68.7983L392.04 68.3423ZM388.84 92.9651L389.754 92.0532C390.212 91.5972 390.669 91.1412 390.669 90.6853L391.583 89.7733L389.297 87.9494L388.383 88.8613C387.925 89.3173 387.468 89.7733 387.468 90.2293L386.554 91.1412L388.84 92.9651ZM384.725 97.9809C385.182 97.5249 385.182 97.069 385.639 96.613L386.554 95.245L384.268 93.4211L383.353 94.7891C382.896 95.245 382.896 95.701 382.439 96.157L381.524 97.5249L383.811 99.3488L384.725 97.9809ZM382.439 136.739L381.524 134.003L380.153 134.459C379.696 134.459 379.238 134.915 378.781 134.915L377.41 135.371L378.324 138.107L379.696 137.651C380.153 137.651 380.61 137.195 381.067 137.195L382.439 136.739ZM390.212 174.585C390.669 174.585 390.669 174.129 391.126 174.129L392.498 173.673L391.583 170.938L390.212 171.394C389.754 171.394 389.754 171.85 389.297 171.85L387.925 172.306L388.84 175.041L390.212 174.585ZM389.297 206.504V203.312H384.725V206.504H389.297ZM383.811 176.865L385.182 176.409L384.268 173.673L382.896 174.129C382.439 174.129 381.982 174.585 381.524 174.585L380.153 175.041L381.067 177.777L382.439 177.321C382.896 176.865 383.353 176.865 383.811 176.865ZM376.495 206.504H377.867C377.867 206.504 378.324 206.504 379.238 206.504H380.61V203.312H379.238C378.324 203.312 377.867 203.312 377.41 203.312H376.038L376.495 206.504ZM372.38 179.145H373.752C374.209 179.145 374.666 179.145 375.581 178.689L376.952 178.233L376.495 175.497L375.123 175.953C374.666 175.953 374.209 175.953 373.752 176.409H372.38V179.145ZM370.094 140.387L371.466 139.931C371.923 139.931 372.38 139.475 373.295 139.475L374.666 139.019L373.752 136.283L372.38 136.739C371.923 136.739 371.466 137.195 371.009 137.195L369.637 137.651L370.094 140.387ZM370.551 68.3423V65.1504H369.18C368.722 65.1504 368.265 65.1504 367.351 65.1504H365.979V68.3423H367.351C367.808 68.3423 368.265 68.3423 369.18 68.3423H370.551ZM365.065 179.145C365.065 179.145 365.522 179.145 365.979 179.145C366.436 179.145 366.436 179.145 366.894 179.145H368.265V175.953H366.894C365.979 175.953 365.522 175.953 365.522 175.953H364.15V179.145H365.065ZM361.407 141.755H362.779C363.236 141.755 363.693 141.755 364.607 141.299H365.979L365.522 138.563H364.15C363.693 138.563 363.236 138.563 362.779 138.563H361.407V141.755ZM360.493 69.2542H361.864L361.407 66.0624H360.035C359.578 66.0624 359.121 66.0624 358.206 66.0624H356.835L357.292 69.2542H358.664C359.578 69.2542 360.035 69.2542 360.493 69.2542ZM353.177 142.211H354.549C355.006 142.211 355.463 142.211 356.378 142.211H357.749V139.019H356.378C355.92 139.019 355.463 139.019 354.549 139.019H353.177V142.211ZM350.434 70.1662C350.891 70.1662 351.348 70.1662 352.263 70.1662H353.634L353.177 66.9743H351.805C351.348 66.9743 350.891 66.9743 349.977 66.9743H348.605L349.062 70.1662H350.434ZM347.691 139.019C347.233 139.019 346.776 139.019 345.862 139.019H344.49V142.211H345.862C346.319 142.211 346.776 142.211 347.691 142.211H349.062V139.019H347.691ZM349.062 165.01L345.862 161.818L343.576 164.098L347.233 167.29L349.062 165.01ZM341.747 174.585H346.319V171.394H341.747V174.585ZM340.832 161.362L343.118 159.538L339.918 156.346L337.632 158.626L340.832 161.362ZM338.089 171.394H333.517V174.585H338.089V171.394ZM335.803 201.944V198.752L331.231 198.296V201.488L335.803 201.944ZM327.573 144.491L325.287 146.771L328.487 149.963L330.774 147.683L327.573 144.491ZM329.402 174.585V171.394H324.83V174.585H329.402ZM323.001 197.84V201.032L327.573 201.488V198.296L323.001 197.84ZM320.715 141.755L323.001 144.035L324.83 141.755L322.544 139.475L321.629 138.563L319.343 140.387L320.715 141.755ZM317.514 134.915C317.057 134.459 316.6 134.459 316.143 134.003L314.771 133.091L312.942 135.371L314.314 136.283C314.771 136.739 315.228 136.739 315.685 137.195L317.057 138.107L318.886 135.827L317.514 134.915ZM314.314 145.859L318.429 144.035L317.057 141.299L312.942 143.123L314.314 145.859ZM314.314 48.2792L313.399 45.5433L312.028 45.9993C311.57 45.9993 311.113 46.4553 310.656 46.4553L309.284 46.9112L309.742 49.6471L311.113 49.1911C311.57 49.1911 312.028 48.7352 312.942 48.7352L314.314 48.2792ZM311.57 71.0782H310.199C309.742 71.0782 309.284 71.0782 308.37 71.0782H306.998L307.456 74.27H308.827C309.284 74.27 309.742 74.27 310.656 74.27H312.028L311.57 71.0782ZM306.998 132.635C307.456 132.635 307.913 133.091 308.37 133.091L309.742 133.547L311.113 131.267L309.742 130.811C309.284 130.811 308.827 130.355 308.37 130.355L306.998 129.899L306.084 132.635H306.998ZM303.798 124.428C303.798 124.884 304.255 125.34 304.255 125.796L304.712 127.164L307.456 126.252L306.998 124.884C306.998 124.428 306.541 123.972 306.541 123.516L306.084 122.148L303.341 123.06L303.798 124.428ZM299.226 130.355C299.683 130.355 300.14 130.355 300.597 130.811L301.969 131.267L302.883 128.532L301.512 128.076C301.055 128.076 300.597 127.62 299.683 127.62L298.311 127.164L297.854 129.899L299.226 130.355ZM296.482 100.261C296.482 100.717 296.94 101.173 296.94 101.629L297.397 102.997L300.14 102.085L299.683 100.717C299.683 100.261 299.226 99.8048 299.226 99.3488L298.768 97.9809L296.025 98.4369L296.482 100.261ZM294.654 92.0532C294.654 92.5092 294.654 92.9652 295.111 93.8771L295.568 95.245L298.311 94.3331L297.854 92.9651C297.854 92.5092 297.854 92.0532 297.397 91.5972V89.7733L294.654 90.2293V92.0532ZM290.996 129.443C291.453 129.443 291.91 129.443 292.367 129.443H293.739L294.196 126.252H292.825C292.367 126.252 291.91 126.252 290.996 126.252H289.624L289.167 129.443H290.996ZM289.167 103.453V100.261H287.795C287.338 100.261 286.881 100.261 285.966 100.261H284.595V103.453H285.966C286.424 103.453 286.881 103.453 287.795 103.453H289.167ZM282.766 128.988C283.223 128.988 283.68 128.988 284.595 128.988H285.966V125.796H284.595C284.138 125.796 283.68 125.796 282.766 125.796H281.394V128.988H282.766ZM280.48 100.261H275.908V103.453H280.48V100.261ZM273.164 128.988H274.536C274.993 128.988 275.45 128.988 276.365 128.988H277.737V125.796H276.365C275.908 125.796 275.45 125.796 274.536 125.796H273.164V128.988ZM272.25 99.8048H267.678V102.997H272.25V99.8048ZM264.477 129.443H265.849C266.306 129.443 266.763 129.443 267.678 129.443H269.049V126.252H267.678C267.221 126.252 266.763 126.252 265.849 126.252H264.477V129.443ZM263.563 102.997V99.8048H258.991V102.997H263.563ZM256.247 130.355H257.619C258.076 130.355 258.533 130.355 259.448 130.355H260.82L260.362 127.164H258.991C258.533 127.164 258.076 127.164 257.162 127.164H255.79L256.247 130.355ZM255.333 102.997V99.8048H253.047H250.761V102.997H253.047H255.333ZM248.018 131.267H249.389C249.846 131.267 250.304 131.267 251.218 131.267H252.59L252.132 128.076H250.761C250.304 128.076 249.846 128.076 248.932 128.076H247.56L248.018 131.267ZM249.389 122.148V120.78C249.389 120.324 249.389 119.868 249.389 118.956V117.588H246.189V118.956C246.189 119.412 246.189 119.868 246.189 120.78V122.148H249.389ZM246.189 110.748C246.189 111.204 246.189 111.66 246.189 112.116V113.484H249.389V112.116C249.389 111.66 249.389 110.748 249.389 110.292V108.924L246.189 109.38V110.748ZM246.646 102.997V99.8048H242.074V102.997H246.646ZM243.903 128.532H242.531C242.074 128.532 241.617 128.532 240.702 128.532H239.33L239.788 131.723H241.159C241.617 131.723 242.074 131.723 242.988 131.723H244.36L243.903 128.532ZM239.33 134.459V135.827C239.33 136.283 239.33 136.739 239.33 137.195V138.563H242.531V137.195C242.531 136.739 242.531 136.283 242.531 135.827V134.459H239.33ZM242.988 145.859C242.988 145.403 242.988 144.947 242.988 144.035V142.667H239.788V144.035C239.788 144.491 239.788 144.947 239.788 145.859V147.227H242.988V145.859ZM242.531 154.066C242.531 153.61 242.531 153.154 242.531 152.242V150.875H239.33V152.242C239.33 152.698 239.33 153.154 239.33 153.61V154.978L242.531 155.434V154.066ZM238.416 164.098L239.788 163.642C240.245 163.186 241.159 162.73 241.159 161.362L241.617 159.994L238.873 159.082L238.416 160.45C238.416 160.906 238.416 160.906 237.959 160.906L237.044 161.362L238.416 164.098ZM238.416 102.997V99.8048H233.844V102.997H238.416ZM231.101 132.635L235.673 132.179V128.988L231.101 129.443V132.635ZM229.729 99.8048H225.157V102.997H229.729V99.8048ZM222.413 133.091L226.986 132.635V129.443L222.413 129.899V133.091ZM221.499 100.261H216.927V103.453H221.499V100.261ZM214.184 133.547L218.756 133.091V129.899L214.184 130.355V133.547ZM213.269 100.261H208.697V103.453H213.269V100.261ZM205.497 134.003L210.069 133.547V130.355L205.497 130.811V134.003ZM204.582 100.261H200.01V103.453H204.582V100.261ZM197.267 134.459L201.839 134.003V130.811L197.267 131.267V134.459ZM196.352 103.453V100.261H194.981C194.066 100.261 193.152 100.261 193.152 100.261H191.78V103.453H193.152C193.152 103.453 193.609 103.453 194.981 103.453H196.352ZM188.58 134.915L193.152 134.459V131.267L188.58 131.723V134.915ZM187.665 104.821C187.665 104.365 187.665 103.909 188.122 102.997L188.58 101.629L185.836 101.173L185.379 102.541C185.379 102.997 185.379 103.453 184.922 103.909L184.465 105.277L187.208 105.733L187.665 104.821ZM185.836 113.028C185.836 112.572 186.293 112.116 186.293 111.204L186.751 109.836L184.007 109.38L183.55 110.748C183.55 111.204 183.093 111.66 183.093 112.116L182.636 113.484L185.379 114.396L185.836 113.028ZM180.35 135.371H181.721C181.721 135.371 182.178 135.371 183.55 135.371H184.922V132.179H183.55C182.636 132.179 181.721 132.179 181.721 132.179H180.35V135.371ZM180.35 129.443C180.807 128.988 180.807 128.532 181.264 128.076L181.721 126.708L178.978 125.34L178.521 126.708C178.521 127.164 178.064 127.62 178.064 128.076L177.606 129.443L179.892 130.811L180.35 129.443ZM176.692 137.195C176.692 136.739 177.149 136.283 177.149 135.827L177.606 134.459L174.863 133.091L174.406 134.459C174.406 134.915 173.949 135.371 173.949 135.827L173.491 137.195L176.235 138.107L176.692 137.195ZM174.406 144.947C174.406 144.491 174.863 144.035 174.863 143.579L175.32 142.211L172.577 141.299L172.12 142.667C172.12 143.123 171.663 143.579 171.663 144.035L171.205 145.403L173.949 146.315L174.406 144.947ZM172.577 153.154C172.577 152.698 172.577 152.242 173.034 151.786L173.491 150.419L170.748 149.963L170.291 151.33C170.291 151.786 170.291 152.242 169.834 153.154L169.376 154.522L172.12 154.978L172.577 153.154ZM171.205 162.73V161.362C171.205 161.362 171.205 160.906 171.205 159.994V158.626L168.462 158.17V159.538C168.462 160.45 168.462 161.362 168.462 161.362V162.73H171.205ZM166.176 106.189H161.604V109.38H166.176V106.189ZM164.804 165.466L164.347 162.274H162.975C162.518 162.274 162.061 162.274 161.147 162.274H159.775L160.232 165.466H161.604C162.061 165.466 162.518 165.466 163.433 165.466H164.804ZM159.318 198.296H160.689C161.147 198.296 161.604 198.296 161.604 198.296H162.975V195.104H161.604C161.147 195.104 161.147 195.104 160.689 195.104H159.318V198.296ZM157.946 108.924V105.733H153.374V108.924H157.946ZM152.002 130.811V134.003L156.574 134.459V131.267L152.002 130.811ZM156.117 162.73H154.746C154.288 162.73 153.831 162.73 152.917 162.73H151.545V165.922H152.917C153.374 165.922 153.831 165.922 154.746 165.922H156.117V162.73ZM152.46 197.84C152.917 197.84 153.374 197.84 154.288 197.84H155.66V194.648H154.288C153.831 194.648 153.374 194.648 152.46 194.648H151.088V197.84H152.46ZM149.716 105.733H145.144V108.924H149.716V105.733ZM143.315 130.355V133.547L147.887 134.003V130.811L143.315 130.355ZM147.887 162.73H146.516C146.058 162.73 145.601 162.73 144.687 162.73H143.315V165.922H144.687C145.144 165.922 145.601 165.922 146.516 165.922H147.887V162.73ZM143.772 197.384C143.772 197.384 144.23 197.384 145.601 197.384H146.973V194.193H145.601C144.687 194.193 143.772 194.193 143.772 194.193H142.401V197.384H143.772ZM106.281 56.4868C106.281 56.9428 106.281 56.9428 106.281 57.3988C106.281 57.8548 106.281 57.8547 106.281 58.3107V59.6787H109.481V58.3107C109.481 57.8547 109.481 57.8548 109.481 57.3988C109.481 56.9428 109.481 56.9428 109.481 56.4868V55.1189H106.281V56.4868ZM119.54 104.365V107.556H124.112V104.365H119.54ZM119.997 66.9743L117.254 66.0624L116.797 67.4303C116.797 67.8863 116.339 68.3423 116.339 68.7983L115.882 70.1662L118.626 71.0782L119.083 69.7102C119.083 69.2542 119.54 68.7982 119.54 68.3423L119.997 66.9743ZM119.54 115.308C119.54 114.852 119.083 114.396 119.083 113.94L118.626 112.572L115.882 113.484L116.339 114.852C116.339 115.308 116.797 115.764 116.797 116.22L117.254 117.588L119.997 117.132L119.54 115.308ZM117.711 108.924L116.797 104.365L114.053 105.277L114.968 109.836L117.711 108.924ZM116.339 77.9178C116.339 77.9178 116.339 77.4618 116.797 76.5499L117.254 75.182L114.511 74.27L114.053 75.6379C113.596 76.5499 113.596 77.0059 113.596 77.4619L113.139 78.8298L115.882 79.7417L116.339 77.9178ZM113.596 91.1412C113.596 90.6852 113.139 90.2293 113.139 89.7733L112.682 88.4054L109.938 88.8613L110.396 90.2293C110.396 90.6852 110.853 91.1412 110.853 91.5972L111.31 92.9651L114.053 92.5092L113.596 91.1412ZM112.225 84.3015L111.767 82.9336C111.767 82.4776 111.767 82.0217 111.31 81.5657L110.853 80.1977L108.11 80.6537L108.567 82.0216C108.567 82.4776 108.567 82.9336 109.024 83.8456L109.481 85.2135L112.225 84.3015ZM110.396 76.0939V74.726C110.396 74.27 110.396 73.814 110.396 73.358V71.9901L107.652 72.4461V73.814C107.652 74.27 107.652 74.726 108.11 75.6379V77.0059L110.396 76.0939ZM109.481 67.8863V66.5184C109.481 66.0624 109.481 65.6064 109.481 64.6944V63.3265H106.281V64.6944C106.281 65.1504 106.281 65.6064 106.281 66.5184V67.8863H109.481ZM106.738 47.8232C106.738 48.2792 106.738 48.7352 106.738 49.6471V51.0151L109.938 51.471V50.1031C109.938 49.6471 109.938 49.1911 109.938 48.7352V47.3672L106.738 46.9112V47.8232ZM107.652 39.6156C107.652 40.0716 107.652 40.5275 107.195 41.4395L106.738 42.8074L109.938 43.2634L110.396 41.8955C110.396 41.4395 110.396 40.9835 110.853 40.5275L111.31 39.1596L108.567 38.7036L107.652 39.6156ZM109.938 30.952C109.938 31.408 109.481 31.8639 109.481 32.3199L109.024 33.6879L111.767 35.0558L112.225 33.6879C112.225 33.2319 112.682 32.7759 112.682 32.3199L113.596 30.496L110.853 29.584L109.938 30.952ZM114.968 21.8324L114.053 23.2003C114.053 23.2003 113.596 23.6563 113.139 24.5683L112.225 25.9362L114.968 27.3041L115.882 25.9362C116.339 25.0242 116.797 24.5683 116.797 24.5683L117.711 23.2003L114.968 21.8324ZM119.54 59.2227C119.54 59.6787 119.083 60.1346 119.083 60.5906L118.626 61.9586L121.369 62.8705L121.826 61.5026C121.826 61.0466 122.283 60.5906 122.283 60.1346L122.741 58.7667L119.997 57.8547L119.54 59.2227ZM122.741 51.471C122.741 51.927 122.283 52.383 122.283 52.839L121.826 54.2069L124.569 55.5749L125.027 54.2069C125.027 53.7509 125.484 53.295 125.484 52.839L125.941 51.471L123.198 50.1031L122.741 51.471ZM126.398 43.7194C125.941 44.1754 125.941 44.6314 125.484 45.0873L125.027 46.4553L127.77 47.8232L128.227 46.4553C128.684 45.9993 128.684 45.5433 129.141 45.0873L129.599 43.7194L126.855 42.3515L126.398 43.7194ZM126.398 132.179L130.97 132.635V129.443L126.398 128.988V132.179ZM136 28.2161L135.085 29.584C134.628 30.04 134.628 30.496 134.171 30.952L133.256 32.3199L135.543 34.1438L136.457 32.7759C136.914 32.3199 136.914 31.8639 137.371 31.408L138.286 30.04L136 28.2161ZM134.628 132.635L139.2 133.091V129.899L134.628 129.443V132.635ZM141.029 105.277H136.457V108.468H141.029V105.277ZM136 165.01C136 165.01 136.457 165.01 137.829 165.01H139.2L139.657 162.73H138.286C137.371 162.73 136.914 162.73 136.914 162.73H135.543L135.085 165.466L136 165.01ZM134.171 36.4237L131.428 35.0558L130.513 36.4237C130.056 36.8797 130.056 37.3357 129.599 37.7917L128.684 39.1596L131.428 40.5275L132.342 39.1596C132.799 38.7036 132.799 38.2476 133.256 37.7917L134.171 36.4237ZM132.799 108.012V104.821H128.227V108.012H132.799ZM127.313 155.434C127.313 155.89 127.77 156.346 127.77 156.802L128.227 158.17L130.97 157.258L130.513 155.89C130.513 155.434 130.056 154.978 130.056 154.522L129.599 153.154L126.855 154.066L127.313 155.434ZM125.027 147.227C125.027 147.683 125.484 148.139 125.484 148.595L125.941 149.963L128.684 149.051L128.227 147.683C128.227 147.227 127.77 146.771 127.77 146.315L127.313 144.947L124.569 145.859L125.027 147.227ZM122.741 139.019C122.741 139.475 123.198 139.931 123.198 140.387L123.655 142.211L126.398 141.299L125.941 139.931C125.941 139.475 125.484 139.019 125.484 138.563L125.027 137.195L122.283 138.107L122.741 139.019ZM120.454 130.811C120.454 131.267 120.912 131.723 120.912 132.179L121.369 133.547L124.112 132.635L123.655 131.267C123.655 130.811 123.198 130.355 123.198 129.899L122.741 128.532L119.997 129.443L120.454 130.811ZM119.083 125.796L121.826 124.884L121.369 123.516C121.369 123.06 120.912 122.604 120.912 122.148L120.454 120.78L117.711 121.692L118.168 123.06C118.168 123.516 118.626 123.972 118.626 124.428L119.083 125.796ZM114.053 140.387C114.511 140.843 114.968 140.843 115.425 141.299L116.339 142.211L118.626 139.931L117.711 139.019C117.254 138.563 116.797 138.107 116.339 138.107L114.968 137.195L113.139 139.475L114.053 140.387ZM113.139 101.173L115.882 100.717L114.968 96.157L112.225 96.613L113.139 101.173ZM107.195 135.827C107.652 136.283 108.11 136.283 108.567 136.739L109.938 137.195L111.31 134.459L109.938 133.547C109.481 133.091 109.024 133.091 108.567 132.635L107.195 131.723L105.824 134.459L107.195 135.827ZM87.5349 68.3423C87.5349 68.7982 87.5349 69.2542 87.5349 70.1662V71.5341H90.7354V70.1662C90.7354 69.7102 90.7354 69.2542 90.7354 68.3423V66.9743H87.5349V68.3423ZM88.4493 60.1346C88.4493 60.5906 88.4493 61.0466 88.4493 61.9586V63.3265L91.1926 63.7825V62.4145C91.1926 61.9586 91.1926 61.5026 91.1926 60.5906V59.2227L88.4493 58.7667V60.1346ZM89.821 51.471C89.821 51.927 89.821 52.383 89.3638 53.295L88.9066 54.6629L91.6498 55.1189L92.1071 53.7509C92.1071 53.2949 92.107 52.839 92.5642 52.383L93.0215 51.0151L90.2782 50.5591L89.821 51.471ZM91.6498 43.2634C91.6498 43.7194 91.1926 44.1754 91.1926 45.0873L90.7354 46.4553L93.4787 46.9112L93.9359 45.5433C93.9359 45.0873 94.3931 44.6314 94.3931 44.1754L94.8503 42.8074L92.1071 41.8955L91.6498 43.2634ZM99.8797 132.179C99.8797 132.179 100.337 132.179 101.251 132.635L102.623 133.091L103.995 130.811L102.623 130.355C101.709 129.899 101.251 129.899 101.251 129.899L99.8797 129.443L98.9653 132.179H99.8797ZM98.9653 29.584C99.4225 28.6721 99.4225 28.2161 99.4225 28.2161L99.8797 26.8482L97.1364 25.9362L96.6792 27.3041C96.6792 27.3041 96.6792 27.7601 96.222 28.6721L95.7648 30.04L98.5081 30.952L98.9653 29.584ZM97.1364 34.5998L94.3931 33.6879L93.9359 35.0558C93.9359 35.5118 93.4787 35.9677 93.4787 36.4237L93.0215 37.7917L95.7648 38.7036L96.222 37.3357C96.222 36.8797 96.6792 36.4237 96.6792 35.9677L97.1364 34.5998ZM93.0215 118.956C93.0215 119.412 93.4787 119.868 93.4787 120.78L93.9359 122.148L96.6792 121.692L96.222 120.324C96.222 119.868 96.222 119.412 95.7648 118.956L95.3076 117.588L92.5642 118.044L93.0215 118.956ZM91.1926 110.748C91.1926 111.204 91.1926 111.66 91.6498 112.572V113.484L94.3931 113.028L93.9359 111.66C93.9359 111.204 93.9359 110.748 93.4787 110.292L93.0215 108.924L90.2782 109.38L91.1926 110.748ZM89.821 102.085C89.821 102.541 89.821 102.997 90.2782 103.909V105.277L93.0215 104.821V103.453C93.0215 102.997 93.0215 102.541 92.5642 101.629V100.261L89.821 100.717V102.085ZM88.9066 93.8771C88.9066 94.3331 88.9066 94.7891 88.9066 95.701V97.069L91.6498 96.613V95.245C91.6498 94.7891 91.6498 94.3331 91.6498 93.4211V92.0532L88.9066 92.5092V93.8771ZM87.9921 85.6695C87.9921 86.1255 87.9921 86.5814 87.9921 87.4934V88.8613L91.1926 88.4054V87.0374C91.1926 86.5814 91.1926 86.1255 91.1926 85.6695V84.3015L87.9921 84.7575V85.6695ZM87.5349 77.0059C87.5349 77.4619 87.5349 77.9178 87.5349 78.8298V80.1977H90.7354V78.8298C90.7354 78.3738 90.7354 77.9178 90.7354 77.0059V75.6379H87.5349V77.0059ZM64.6741 30.496C64.6741 29.584 64.2169 28.6721 64.2169 28.6721L63.7597 27.3041L61.0164 27.7601L61.4736 29.1281C61.4736 29.1281 61.4736 29.584 61.9308 30.496L62.388 31.8639L65.1313 31.408L64.6741 30.496ZM65.5886 39.1596C65.5886 38.7036 65.5886 38.2476 65.5886 37.3357V35.9677L62.388 36.4237V37.7917C62.388 38.2476 62.388 38.7036 62.388 39.6156V40.9835L65.5886 40.5275V39.1596ZM66.0458 47.8232C66.0458 47.3672 66.0458 46.9113 66.0458 45.9993V44.6313H62.8452V45.9993C62.8452 46.4553 62.8452 46.9112 62.8452 47.8232V49.1911H66.0458V47.8232ZM65.5886 56.0308C65.5886 55.5748 65.5886 55.1189 65.5886 54.2069V52.839H62.388V54.2069C62.388 54.6629 62.388 55.1189 62.388 56.0308V57.3988H65.5886V56.0308ZM65.1313 64.6944C65.1313 64.2385 65.1313 63.7825 65.1313 62.8705V61.5026L62.388 61.0466V62.4145C62.388 62.8705 62.388 63.3265 62.388 63.7825V65.1504L65.1313 65.6064V64.6944ZM63.3025 72.9021C63.3025 72.4461 63.3025 71.9901 63.7597 71.0782L64.2169 69.7102L61.4736 69.2542L61.0164 70.6222C61.0164 71.0781 61.0164 71.5341 60.5592 71.9901L60.102 73.358L62.8452 73.814L63.3025 72.9021ZM61.4736 81.1097C61.4736 80.6537 61.9308 80.1977 61.9308 79.7417L62.388 78.3738L59.6447 77.4619L59.1875 78.8298C59.1875 79.2858 58.7303 79.7418 58.7303 80.1977L58.2731 81.5657L61.0164 82.4776L61.4736 81.1097ZM58.7303 90.6853L59.1875 89.3173C59.1875 88.8613 59.6447 88.4053 59.6447 87.9494L60.102 86.5814L57.3587 85.6695L56.9015 87.0374C56.9015 87.4934 56.4442 87.9494 56.4442 88.4054L55.987 89.7733L58.7303 90.6853ZM55.0726 98.8929L55.987 97.5249C56.4442 97.069 56.4442 96.613 56.9015 96.157L57.3587 94.3331L54.6154 92.9651L54.1582 94.3331C53.701 94.7891 53.7009 95.245 53.2437 95.701L52.3293 97.069L55.0726 98.8929Z" fill="#E9D3B0"/>
</svg>
