<svg width="114" height="148" viewBox="0 0 114 148" fill="none" xmlns="http://www.w3.org/2000/svg">
<path d="M57.0056 66.5022C87.3972 66.5022 112.034 58.6617 112.034 48.9899C112.034 39.3181 87.3972 31.4775 57.0056 31.4775C26.614 31.4775 1.97676 39.3181 1.97676 48.9899C1.97676 58.6617 26.614 66.5022 57.0056 66.5022Z" stroke="#E9D3B0" stroke-width="2" stroke-linecap="round" stroke-linejoin="round"/>
<path d="M53.0689 92.6925C-0.117976 90.7378 1.98513 48.9854 1.98513 48.9854" stroke="#E9D3B0" stroke-width="2" stroke-linecap="round" stroke-linejoin="round"/>
<path d="M60.9311 92.6925C68.9796 92.5398 76.9455 91.0466 84.4976 88.2748C86.9458 87.3509 89.3126 86.2264 91.5735 84.9127V84.8932C113.194 72.3049 112.015 48.9854 112.015 48.9854" stroke="#E9D3B0" stroke-width="2" stroke-linecap="round" stroke-linejoin="round"/>
<path d="M60.9311 86.9065C60.9311 84.7474 59.1711 82.9971 57.0001 82.9971C54.829 82.9971 53.069 84.7474 53.069 86.9065V112.318C53.069 114.477 54.829 116.227 57.0001 116.227C59.1711 116.227 60.9311 114.477 60.9311 112.318V86.9065Z" stroke="#E9D3B0" stroke-width="2" stroke-linecap="round" stroke-linejoin="round"/>
<path d="M20.0876 83.4468L9.69 103.267C9.40025 103.824 9.24544 104.439 9.23793 105.066C9.2458 106.526 10.0618 107.864 11.3607 108.545C12.283 109.024 13.3591 109.118 14.3513 108.806C15.3434 108.495 16.1699 107.803 16.6479 106.884L26.9669 87.2389" stroke="#E9D3B0" stroke-width="2" stroke-linecap="round" stroke-linejoin="round"/>
<path d="M93.8535 83.4468L104.31 103.346C105.31 105.262 104.563 107.622 102.639 108.623C102.08 108.911 101.461 109.065 100.831 109.073C99.3678 109.064 98.029 108.252 97.3521 106.962L86.9938 87.2389" stroke="#E9D3B0" stroke-width="2" stroke-linecap="round" stroke-linejoin="round"/>
<path d="M13.7587 51.721L23.5863 41.9485" stroke="#E9D3B0" stroke-width="2" stroke-linecap="round" stroke-linejoin="round"/>
<path d="M21.6207 55.6313L37.3449 39.9937" stroke="#E9D3B0" stroke-width="2" stroke-linecap="round" stroke-linejoin="round"/>
<path d="M31.4483 57.5858L51.1034 38.0388" stroke="#E9D3B0" stroke-width="2" stroke-linecap="round" stroke-linejoin="round"/>
<path d="M41.2759 59.5405L62.8966 38.0388" stroke="#E9D3B0" stroke-width="2" stroke-linecap="round" stroke-linejoin="round"/>
<path d="M53.069 59.5407L72.7242 39.9937" stroke="#E9D3B0" stroke-width="2" stroke-linecap="round" stroke-linejoin="round"/>
<path d="M64.8621 59.5408L82.5518 41.9485" stroke="#E9D3B0" stroke-width="2" stroke-linecap="round" stroke-linejoin="round"/>
<path d="M78.6207 57.5861L94.3449 41.9485" stroke="#E9D3B0" stroke-width="2" stroke-linecap="round" stroke-linejoin="round"/>
<path d="M92.3794 55.6305L100.241 47.8125" stroke="#E9D3B0" stroke-width="2" stroke-linecap="round" stroke-linejoin="round"/>
<path d="M49.3249 2.85278L44.6057 8.46428C42.7866 10.6273 42.7866 13.7754 44.6057 15.9384L44.6096 15.9431C46.4287 18.1061 46.4287 21.2543 44.6096 23.4173L43.8214 24.3545" stroke="#E9D3B0" stroke-width="2" stroke-linecap="round" stroke-linejoin="round"/>
<path d="M61.118 2.85278L56.3988 8.46428C54.5798 10.6273 54.5798 13.7754 56.3988 15.9384L56.4027 15.9431C58.2218 18.1061 58.2218 21.2543 56.4027 23.4173L55.6146 24.3545" stroke="#E9D3B0" stroke-width="2" stroke-linecap="round" stroke-linejoin="round"/>
<path d="M72.9111 2.85278L68.1919 8.46428C66.3728 10.6273 66.3728 13.7754 68.1919 15.9384L68.1958 15.9431C70.0149 18.1061 70.0149 21.2543 68.1958 23.4173L67.4077 24.3545" stroke="#E9D3B0" stroke-width="2" stroke-linecap="round" stroke-linejoin="round"/>
</svg>
