<svg width="26" height="25" viewBox="0 0 26 25" fill="none" xmlns="http://www.w3.org/2000/svg">
<path fill-rule="evenodd" clip-rule="evenodd" d="M0.408958 19.8671C0.540018 22.6961 2.87442 24.9487 5.73585 24.9487L11.6217 24.9487L11.8734 24.9429C14.709 24.8116 16.9664 22.4727 16.9664 19.6052L16.9664 18.4808L16.9582 18.3582C16.8983 17.917 16.5202 17.577 16.0626 17.577C15.5634 17.577 15.1587 17.9816 15.1587 18.4808L15.1587 19.6052L15.1527 19.813C15.0452 21.6696 13.5062 23.141 11.6217 23.141L5.73585 23.141L5.52868 23.1351C3.67793 23.0279 2.21085 21.4937 2.21085 19.616L2.21085 6.19091L2.21685 5.9831C2.32445 4.12655 3.8644 2.65386 5.7479 2.65386L11.6349 2.65386L11.842 2.65985C13.6914 2.76709 15.1587 4.30204 15.1587 6.17886L15.1587 7.31409L15.167 7.43674C15.2268 7.87791 15.605 8.21794 16.0626 8.21794C16.5618 8.21794 16.9664 7.81327 16.9664 7.31409L16.9664 6.17886L16.9603 5.92054C16.8255 3.09591 14.4926 0.846168 11.6349 0.846168L5.7479 0.846168L5.49631 0.851986C2.66148 0.983374 0.403152 3.32363 0.403153 6.19091L0.403154 19.616L0.408958 19.8671ZM20.004 8.74606C20.3242 8.42452 20.8263 8.39432 21.1807 8.65613L21.2822 8.74344L24.8109 12.2576C25.1333 12.5787 25.1627 13.0826 24.8988 13.4369L24.8958 13.4404C24.8704 13.4742 24.8427 13.5062 24.813 13.536L24.8109 13.5384L21.2822 17.0526C20.9285 17.4048 20.3563 17.4037 20.004 17.05C19.6838 16.7284 19.6556 16.2262 19.9189 15.8729L20.0066 15.7717L21.984 13.8019L9.66177 13.8019C9.16259 13.8019 8.75792 13.3972 8.75792 12.898C8.75792 12.4405 9.09795 12.0623 9.53912 12.0024L9.66177 11.9942L21.9837 11.9942L20.0066 10.0243C19.6851 9.70407 19.6549 9.20199 19.9167 8.84762L20.004 8.74606Z" fill="white"/>
</svg>
