<svg width="23" height="25" viewBox="0 0 23 25" fill="none" xmlns="http://www.w3.org/2000/svg">
<path fill-rule="evenodd" clip-rule="evenodd" d="M22.8766 5.92778C22.7455 3.0988 20.4111 0.846154 17.5497 0.846154H11.6639L11.4122 0.851968C8.57651 0.98328 6.31911 3.32219 6.31911 6.18969V7.31408L6.32736 7.43672C6.38721 7.87789 6.76537 8.21792 7.22295 8.21792C7.72214 8.21792 8.1268 7.81326 8.1268 7.31408V6.18969L8.1328 5.98187C8.24033 4.12528 9.77934 2.65385 11.6639 2.65385H17.5497L17.7569 2.65983C19.6076 2.76702 21.0747 4.30116 21.0747 6.17885V19.604L21.0687 19.8118C20.9611 21.6683 19.4211 23.141 17.5376 23.141H11.6506L11.4436 23.135C9.59417 23.0278 8.1268 21.4928 8.1268 19.616V18.4808L8.11855 18.3581C8.0587 17.917 7.68054 17.5769 7.22295 17.5769C6.72377 17.5769 6.31911 17.9816 6.31911 18.4808V19.616L6.32526 19.8743C6.46002 22.699 8.79296 24.9487 11.6506 24.9487H17.5376L17.7892 24.9429C20.6241 24.8115 22.8824 22.4713 22.8824 19.604V6.17885L22.8766 5.92778ZM11.8615 8.74546C12.1817 8.42392 12.6838 8.39371 13.0381 8.65553L13.1397 8.74284L16.6683 12.257C16.9908 12.5781 17.0201 13.082 16.7563 13.4363L16.7532 13.4399C16.7278 13.4736 16.7002 13.5055 16.6705 13.5353L16.6683 13.5378L13.1397 17.052C12.786 17.4042 12.2137 17.4031 11.8615 17.0494C11.5412 16.7278 11.5131 16.2256 11.7764 15.8723L11.8641 15.7711L13.8414 13.8013H1.5192C1.02002 13.8013 0.615354 13.3966 0.615354 12.8974C0.615354 12.4399 0.955386 12.0617 1.39655 12.0018L1.5192 11.9936H13.8411L11.8641 10.0237C11.5425 9.70346 11.5123 9.20139 11.7742 8.84701L11.8615 8.74546Z" fill="white"/>
</svg>
