<svg width="34" height="34" viewBox="0 0 34 34" fill="none" xmlns="http://www.w3.org/2000/svg">
<circle cx="17" cy="17" r="16.25" stroke="white" stroke-width="1.5"/>
<path fill-rule="evenodd" clip-rule="evenodd" d="M15.3249 17.6751C14.1232 16.4734 13.2172 15.1279 12.6154 13.7629C12.488 13.4742 12.563 13.1363 12.7859 12.9134L13.6271 12.0733C14.3163 11.3841 14.3163 10.4093 13.7144 9.80746L12.5085 8.60163C11.7064 7.79946 10.406 7.79946 9.60387 8.60163L8.93419 9.27131C8.17311 10.0324 7.85573 11.1304 8.06115 12.2191C8.56854 14.903 10.1277 17.8415 12.6431 20.3569C15.1585 22.8723 18.097 24.4315 20.7809 24.9389C21.8696 25.1443 22.9676 24.8269 23.7287 24.0658L24.3973 23.3972C25.1995 22.595 25.1995 21.2947 24.3973 20.4925L23.1925 19.2877C22.5907 18.6858 21.6149 18.6858 21.014 19.2877L20.0866 20.2162C19.8637 20.4391 19.5258 20.5141 19.2371 20.3867C17.8721 19.7838 16.5266 18.8768 15.3249 17.6751Z" fill="white" stroke="white" stroke-width="1.49991" stroke-linecap="round" stroke-linejoin="round"/>
</svg>
