<svg width="111" height="89" viewBox="0 0 111 89" fill="none" xmlns="http://www.w3.org/2000/svg">
<path d="M92.0372 73.8064C95.4108 76.8594 95.4108 81.8064 92.0372 84.8545C88.6637 87.9075 83.1973 87.9075 79.8292 84.8545C76.4556 81.8015 76.4556 76.8545 79.8292 73.8064C83.2027 70.7533 88.6691 70.7533 92.0372 73.8064" stroke="#E9D3B0" stroke-width="2" stroke-linecap="round" stroke-linejoin="round"/>
<path d="M32.0877 73.8045C35.4613 76.8575 35.4613 81.8045 32.0877 84.8526C28.7142 87.9056 23.2478 87.9056 19.8797 84.8526C16.5115 81.7996 16.5061 76.8526 19.8797 73.8045C23.2532 70.7564 28.7142 70.7515 32.0877 73.8045" stroke="#E9D3B0" stroke-width="2" stroke-linecap="round" stroke-linejoin="round"/>
<path d="M44.6001 3.29541H66.4001C69.4086 3.29541 71.8502 5.50501 71.8502 8.22756V57.5491H1" stroke="#E9D3B0" stroke-width="2" stroke-linecap="round" stroke-linejoin="round"/>
<path d="M17.35 79.3314H6.45001C3.4416 79.3314 1 77.1218 1 74.3993V47.6868" stroke="#E9D3B0" stroke-width="2" stroke-linecap="round" stroke-linejoin="round"/>
<path d="M71.85 18.0911H95.4104C97.6395 18.0911 99.6451 19.3192 100.468 21.1934L109.221 40.9911C109.733 42.1551 110 43.398 110 44.6508V73.9874C110 76.7099 107.559 78.9196 104.55 78.9196H94.5711" stroke="#E9D3B0" stroke-width="2" stroke-linecap="round" stroke-linejoin="round"/>
<path d="M77.3002 79.3458H34.6266" stroke="#E9D3B0" stroke-width="2" stroke-linecap="round" stroke-linejoin="round"/>
<path d="M110 52.6155H88.2V32.8867H105.64" stroke="#E9D3B0" stroke-width="2" stroke-linecap="round" stroke-linejoin="round"/>
<path d="M1 3.29419H28.2501" stroke="#E9D3B0" stroke-width="2" stroke-linecap="round" stroke-linejoin="round"/>
<path d="M1 18.0899H17.35" stroke="#E9D3B0" stroke-width="2" stroke-linecap="round" stroke-linejoin="round"/>
<path d="M6.45005 32.8859H1" stroke="#E9D3B0" stroke-width="2" stroke-linecap="round" stroke-linejoin="round"/>
<path d="M102.385 38.2275H93.5689" stroke="#E9D3B0" stroke-width="2" stroke-linecap="round" stroke-linejoin="round"/>
</svg>
