<svg width="108" height="108" viewBox="0 0 108 108" fill="none" xmlns="http://www.w3.org/2000/svg">
<path fill-rule="evenodd" clip-rule="evenodd" d="M53.75 85.1477V85.1477C45.0507 85.1477 38 78.1161 38 69.4405V67.2362C38 64.3461 40.352 62.0005 43.25 62.0005H64.25C67.148 62.0005 69.5 64.3461 69.5 67.2362V69.4405C69.5 78.1161 62.4493 85.1477 53.75 85.1477Z" stroke="#E9D3B0" stroke-width="2" stroke-linecap="round" stroke-linejoin="round"/>
<path d="M66.9889 27.5532V14.4637C66.9889 7.23312 61.1141 1.37427 53.8639 1.37427V1.37427C46.6136 1.37427 40.7389 7.23312 40.7389 14.4637V27.5532" stroke="#E9D3B0" stroke-width="2" stroke-linecap="round" stroke-linejoin="round"/>
<path d="M90.7495 53.7324V95.6188C90.7495 101.404 86.0508 106.09 80.2495 106.09H27.7495C21.9483 106.09 17.2495 101.404 17.2495 95.6188V53.7324" stroke="#E9D3B0" stroke-width="2" stroke-linecap="round" stroke-linejoin="round"/>
<path d="M106.5 53.7323H93.1593C85.6518 53.7323 79.189 48.4494 77.7138 41.1035L75.8395 31.7628C75.3513 29.3125 73.1988 27.5532 70.6945 27.5532H53.9995H37.3045C34.8003 27.5532 32.6478 29.3125 32.1543 31.7628L30.28 41.1035C28.81 48.4494 22.3473 53.7323 14.8398 53.7323H1.49951" stroke="#E9D3B0" stroke-width="2" stroke-linecap="round" stroke-linejoin="round"/>
<path d="M47 72.1536H61.8365" stroke="#E9D3B0" stroke-width="2" stroke-linecap="round" stroke-linejoin="round"/>
<path d="M50 78.1655H57" stroke="#E9D3B0" stroke-width="2" stroke-linecap="round" stroke-linejoin="round"/>
</svg>
