<svg width="126" height="37" viewBox="0 0 126 37" fill="none" xmlns="http://www.w3.org/2000/svg">
<g opacity="0.7" clip-path="url(#clip0_1_550)">
<path d="M16.3099 3.08897V1.18171H22.6033V8.27696H16.2577C15.6873 7.29763 14.8383 6.50782 13.8175 6.00689C12.7963 5.519 11.676 5.27076 10.543 5.2813C9.7119 5.21448 8.88222 5.42613 8.18621 5.88251C7.95227 6.05436 7.76237 6.2786 7.63192 6.53704C7.50146 6.79547 7.43413 7.08083 7.43537 7.36997C7.42343 7.78335 7.57078 8.18563 7.84729 8.49463C8.20751 8.84399 8.6655 9.07704 9.16125 9.16322C9.76262 9.30488 10.8541 9.49147 12.4357 9.72297C14.5979 10.0408 16.0248 10.2827 16.7166 10.4486C17.6941 10.6786 18.6397 11.0267 19.5322 11.4851C20.2441 11.885 20.8881 12.394 21.4406 12.9933C22.054 13.6695 22.5287 14.4582 22.838 15.3152C23.1966 16.2929 23.3733 17.3273 23.3594 18.3679C23.387 19.4671 23.1715 20.559 22.7283 21.5664C22.285 22.5739 21.6247 23.4724 20.794 24.1985C19.0873 25.7292 16.7496 26.4945 13.781 26.4945C12.4274 26.5211 11.081 26.2925 9.81302 25.8207C8.79649 25.4513 7.86926 24.8739 7.09123 24.126V25.9555H0.834248V18.1813H7.26329C7.81634 19.186 8.60739 20.0417 9.56796 20.6742C10.5273 21.2395 11.6287 21.5217 12.7434 21.4879C13.6249 21.5582 14.5045 21.3319 15.241 20.8453C15.4952 20.6457 15.6991 20.3901 15.8367 20.0987C15.9743 19.8072 16.0416 19.4879 16.0335 19.166C16.0592 18.7274 15.9156 18.2955 15.632 17.9584C15.1055 17.5488 14.4796 17.2842 13.8175 17.1914C13.1223 17.029 11.8882 16.832 10.1154 16.6005C8.74977 16.4514 7.39842 16.1931 6.07447 15.8283C4.89882 15.4822 3.79137 14.9388 2.79998 14.2216C1.95642 13.5771 1.26129 12.7607 0.761242 11.8272C0.259755 10.8544 -0.00177002 9.77692 -0.00177002 8.68381C-0.00177002 7.59071 0.259755 6.51328 0.761242 5.54044C1.73812 3.7146 3.3508 2.30507 5.29756 1.5756C6.7303 1.06567 8.24459 0.819788 9.7661 0.850009C10.986 0.822298 12.202 0.997472 13.3639 1.36829C14.4404 1.76442 15.4378 2.34698 16.3099 3.08897Z" fill="#E9D3B0" fill-opacity="0.6"/>
<path d="M38.1988 23.3437C36.7617 23.3462 35.3361 23.0898 33.991 22.587C32.7015 22.1227 31.5124 21.4192 30.4871 20.5139C29.5519 19.6911 28.7731 18.708 28.1876 17.6115C27.4656 16.2672 27.0894 14.7663 27.0926 13.2424C27.0857 12.1179 27.289 11.002 27.6923 9.95133C28.0646 8.97367 28.5928 8.06194 29.2565 7.2511C29.9196 6.46393 30.6839 5.76691 31.5299 5.17798C32.4681 4.524 33.5047 4.02195 34.601 3.69052C35.7717 3.32385 36.9922 3.13855 38.2197 3.14114C39.4389 3.12516 40.653 3.30006 41.8174 3.65942C42.8715 3.98642 43.8725 4.46297 44.7895 5.07433C45.6507 5.65973 46.4293 6.35695 47.1046 7.14745C48.5352 8.8554 49.3241 11.0045 49.3362 13.2269C49.3547 14.6498 49.0274 16.0562 48.382 17.3265C47.2285 19.6127 45.2876 21.4114 42.9124 22.3952C41.4217 23.0245 39.8183 23.3471 38.1988 23.3437ZM39.2416 8.5468C38.449 8.54445 37.6681 8.73674 36.9683 9.10655C36.2334 9.49824 35.6257 10.0896 35.2163 10.8117C34.7756 11.5356 34.5412 12.3651 34.5385 13.2113C34.5403 14.0306 34.7636 14.8343 35.185 15.5384C35.5912 16.2545 36.1908 16.8434 36.9161 17.2384C37.6267 17.6268 38.4254 17.8284 39.2364 17.824C40.0449 17.8267 40.841 17.627 41.5515 17.2435C42.2777 16.8568 42.8782 16.2726 43.2826 15.5591C43.7034 14.8475 43.9249 14.0368 43.9239 13.2113C43.924 12.3652 43.6953 11.5347 43.2617 10.8065C42.8571 10.0839 42.2504 9.49337 41.515 9.10655C40.815 8.73653 40.0345 8.54258 39.2416 8.54162V8.5468Z" fill="#E9D3B0" fill-opacity="0.6"/>
<path d="M52.2042 4.81494L61.8503 5.94998V8.76941L60.1714 8.65538V13.9833C60.166 14.3335 60.2117 14.6827 60.307 15.0199C60.4132 15.5181 60.6591 15.9762 61.0161 16.3415C61.3829 16.6313 61.8216 16.8174 62.2859 16.8804C62.7502 16.9433 63.2229 16.8807 63.6545 16.6991C63.969 16.5806 64.2525 16.3928 64.4835 16.1497C64.8752 15.7134 65.0906 15.1485 65.0883 14.5638V9.09075L63.6545 8.95599V6.20912L70.2399 7.01763L70.339 9.3188L69.1554 9.38616C69.1554 10.941 69.1554 12.2989 69.1554 13.9367C69.2394 15.0972 69.0315 16.2603 68.5505 17.321C68.3514 17.7138 68.0929 18.0738 67.7841 18.3887C67.3029 18.8387 66.7378 19.1908 66.1207 19.4253C65.5063 19.7038 64.8675 19.9259 64.2124 20.0887C63.2442 20.3162 62.2555 20.4464 61.2611 20.4774C60.4229 20.5767 59.5757 20.5767 58.7375 20.4774C57.9657 20.3587 57.2209 20.1061 56.5371 19.731C56.1042 19.5138 55.7208 19.2104 55.4109 18.8396C55.1842 18.5532 55.0079 18.2308 54.8895 17.886C54.5762 16.9473 54.428 15.9619 54.4515 14.9732L54.4202 8.3807L52.2354 8.12156L52.2042 4.81494Z" fill="#E9D3B0" fill-opacity="0.6"/>
<path d="M77.2059 37.0002C91.6044 37.0002 103.277 33.9836 103.277 30.2625C103.277 26.5414 91.6044 23.5249 77.2059 23.5249C62.8074 23.5249 51.1351 26.5414 51.1351 30.2625C51.1351 33.9836 62.8074 37.0002 77.2059 37.0002Z" fill="#E9D3B0"/>
<path d="M57.9345 28.163V27.8986H59.0451V29.3602H57.9397C57.8778 29.2186 57.7718 29.1005 57.6373 29.0233C57.4536 28.9282 57.2444 28.893 57.0394 28.9227C56.8344 28.9525 56.644 29.0457 56.4954 29.1892C56.4021 29.2921 56.3305 29.4125 56.2849 29.5433C56.2392 29.6742 56.2203 29.8128 56.2295 29.951C56.2221 30.1608 56.2668 30.369 56.3598 30.5574C56.4369 30.7092 56.5588 30.834 56.7092 30.915C56.8374 30.9767 56.9787 31.0069 57.1211 31.0032C57.2507 31.0045 57.3794 30.9835 57.5017 30.9409C57.5988 30.9108 57.6879 30.8594 57.7624 30.7907C57.8279 30.7217 57.8793 30.6407 57.9137 30.5522H57.3922V29.7696H59.6239V30.5937H59.238V32.0397H58.1952V31.6199C58.0337 31.7925 57.8409 31.9331 57.6269 32.0345C57.4175 32.1221 57.1918 32.1645 56.9647 32.1589C56.6965 32.1665 56.4297 32.1178 56.1817 32.016C55.9338 31.9142 55.7102 31.7616 55.5256 31.5681C55.1381 31.144 54.934 30.5856 54.9572 30.0132C54.9509 29.6593 55.0129 29.3074 55.1397 28.9767C55.2218 28.7721 55.3382 28.5828 55.4839 28.4169C55.6429 28.2363 55.836 28.0885 56.0522 27.9816C56.3128 27.8598 56.5987 27.8011 56.8865 27.8105C57.0827 27.8063 57.2782 27.8344 57.4652 27.8935C57.6352 27.9577 57.7936 28.0487 57.9345 28.163Z" fill="black"/>
<path d="M60.505 32.0243V31.1795H60.9169V28.7384H60.5206V27.8936H62.8305C63.1126 27.8887 63.3946 27.9008 63.6752 27.9299C63.8252 27.945 63.9725 27.9799 64.1132 28.0336C64.2227 28.0817 64.3218 28.1503 64.4052 28.2357C64.4964 28.3283 64.5659 28.4398 64.6085 28.5622C64.6558 28.6989 64.6787 28.8427 64.6763 28.9872C64.6875 29.2139 64.6152 29.4368 64.473 29.6143C64.3037 29.7909 64.0797 29.9059 63.8368 29.9408L64.2331 30.0393C64.3018 30.059 64.3657 30.0925 64.4208 30.1378C64.4591 30.1733 64.4878 30.2179 64.5042 30.2674C64.5323 30.3827 64.5446 30.5012 64.5407 30.6198V31.1847H64.8797V32.0295H63.3154V30.9929C63.3208 30.8729 63.3103 30.7527 63.2841 30.6353C63.2693 30.5723 63.2367 30.5148 63.1903 30.4695C63.1335 30.426 63.0675 30.3959 62.9974 30.3814C62.8899 30.3703 62.7816 30.3703 62.6741 30.3814H62.1996V31.1899H62.6011V32.0347L60.505 32.0243ZM62.1787 28.7384V29.5729H62.6115C62.811 29.5926 63.0119 29.5548 63.1903 29.464C63.2386 29.4238 63.2766 29.3728 63.301 29.3151C63.3255 29.2574 63.3358 29.1948 63.3311 29.1323C63.3352 29.0436 63.3096 28.9561 63.2581 28.8836C63.2101 28.8223 63.1417 28.78 63.0652 28.7643C62.9273 28.7421 62.7876 28.7334 62.648 28.7384H62.1787Z" fill="black"/>
<path d="M67.93 32.0243H65.8026V31.1795H66.2145V28.7383H65.8026V27.8936H67.93V28.7383H67.492V31.1795H67.93V32.0243Z" fill="black"/>
<path d="M68.8424 32.0243V31.1795H69.2856V28.7383H68.858V27.8936H70.9854V28.7383H70.5579V31.1795H71.6007L71.7884 30.3709H72.5862V32.0243H68.8424Z" fill="black"/>
<path d="M73.4883 32.0243V31.1795H73.9158V28.7383H73.4883V27.8936H75.6157V28.7383H75.1881V31.1795H76.2309L76.4186 30.3709H77.2164V32.0243H73.4883Z" fill="black"/>
<path d="M80.6317 29.7181L81.4138 30.5163C81.5882 30.3835 81.7204 30.2036 81.7944 29.998H81.4712V29.2465H83.0354V30.0654H82.6704C82.6066 30.2468 82.5226 30.4207 82.4201 30.5837C82.2967 30.7726 82.1514 30.9465 81.9874 31.102L82.1334 31.2626H82.8425V32.0711H81.4347L81.1479 31.7861C80.9405 31.9029 80.72 31.9951 80.4909 32.0608C80.2679 32.1183 80.0382 32.1462 79.8078 32.1437C79.4413 32.1631 79.0775 32.0709 78.765 31.8794C78.6121 31.7798 78.4851 31.6455 78.3945 31.4877C78.3038 31.3299 78.252 31.153 78.2434 30.9715C78.2347 30.79 78.2694 30.609 78.3447 30.4434C78.42 30.2778 78.5336 30.1323 78.6764 30.0187C78.805 29.9211 78.9451 29.8393 79.0935 29.7751C78.9604 29.6625 78.8507 29.5252 78.7702 29.3709C78.687 29.2289 78.6404 29.0687 78.6347 28.9044C78.6374 28.7334 78.688 28.5665 78.7807 28.4224C78.8847 28.2576 79.0378 28.129 79.2186 28.0545C79.4381 27.9632 79.6744 27.9191 79.9121 27.9249C80.2408 27.9013 80.5668 27.9971 80.8298 28.1944C80.9287 28.2777 81.0076 28.3818 81.0608 28.4993C81.1141 28.6168 81.1403 28.7445 81.1375 28.8733C81.1437 29.0548 81.0986 29.2344 81.0071 29.3916C80.905 29.5241 80.7774 29.6351 80.6317 29.7181ZM80.4753 31.0812L79.714 30.3349C79.6161 30.3827 79.5332 30.4562 79.4741 30.5474C79.4114 30.6334 79.3769 30.7366 79.3751 30.8428C79.377 30.9795 79.4333 31.1099 79.5315 31.2056C79.5822 31.2571 79.6432 31.2976 79.7105 31.3243C79.7779 31.3511 79.8501 31.3636 79.9226 31.3611C80.03 31.3621 80.1361 31.3377 80.2322 31.29C80.3283 31.2422 80.4116 31.1725 80.4753 31.0864V31.0812ZM79.9538 29.262C80.0027 29.2564 80.0497 29.2405 80.092 29.2155C80.1342 29.1905 80.1706 29.1569 80.1989 29.1169C80.281 29.0259 80.3257 28.9075 80.3241 28.7852C80.3262 28.7384 80.3186 28.6916 80.3015 28.6479C80.2844 28.6041 80.2584 28.5644 80.225 28.5313C80.1506 28.4657 80.0531 28.4322 79.9538 28.438C79.8457 28.4317 79.7394 28.467 79.6566 28.5365C79.6214 28.5687 79.5934 28.608 79.5745 28.6518C79.5556 28.6955 79.5463 28.7428 79.5471 28.7904C79.5487 28.8618 79.5664 28.9319 79.5989 28.9956C79.6314 29.0593 79.6778 29.115 79.7349 29.1584C79.7965 29.2228 79.8803 29.2617 79.9695 29.2672L79.9538 29.262Z" fill="black"/>
<path d="M84.125 32.0245V31.1797H84.537V28.7386H84.1094V27.8938H86.7165C86.9795 27.8863 87.2423 27.9124 87.4986 27.9716C87.6912 28.0231 87.8615 28.136 87.9835 28.2929C88.1169 28.4705 88.185 28.6882 88.1764 28.9097C88.1875 29.1323 88.1171 29.3514 87.9783 29.5264C87.8202 29.6972 87.6091 29.8104 87.3787 29.8478C87.6497 29.8651 87.9052 29.9793 88.0982 30.1691C88.2619 30.3706 88.3438 30.6258 88.3276 30.8843C88.3295 31.0394 88.3048 31.1936 88.2546 31.3404C88.2124 31.4658 88.1409 31.5794 88.0461 31.6721C87.9567 31.7561 87.8524 31.8229 87.7385 31.8691C87.57 31.929 87.395 31.9691 87.217 31.9883C86.9798 32.0134 86.7412 32.0238 86.5027 32.0194L84.125 32.0245ZM85.7832 28.6972V29.5316H86.1534C86.3054 29.5356 86.4575 29.5234 86.607 29.4953C86.7024 29.478 86.7889 29.4286 86.852 29.3554C86.9099 29.2816 86.9395 29.1897 86.9355 29.0962C86.939 29.0402 86.929 28.9842 86.9063 28.9328C86.8836 28.8815 86.8489 28.8362 86.8051 28.8008C86.6443 28.7194 86.4634 28.6852 86.2837 28.7024L85.7832 28.6972ZM85.7832 30.2157V31.1901H86.2472C86.4718 31.2068 86.6972 31.1695 86.9042 31.0813C86.9661 31.0417 87.0159 30.9859 87.0481 30.9201C87.0802 30.8543 87.0936 30.781 87.0867 30.7081C87.0927 30.6385 87.0821 30.5684 87.0558 30.5036C87.0296 30.4388 86.9883 30.381 86.9355 30.3349C86.7399 30.2336 86.5186 30.1921 86.2993 30.2157H85.7832Z" fill="black"/>
<path d="M89.4071 32.0245V31.1797H89.819V28.7386H89.3915V27.8938H91.9986C92.2615 27.8863 92.5244 27.9124 92.7807 27.9716C92.9733 28.0231 93.1436 28.136 93.2656 28.2929C93.399 28.4705 93.467 28.6882 93.4585 28.9097C93.4696 29.1323 93.3992 29.3514 93.2604 29.5264C93.1023 29.6972 92.8912 29.8104 92.6608 29.8478C92.9317 29.8651 93.1873 29.9793 93.3803 30.1691C93.544 30.3706 93.6259 30.6258 93.6097 30.8843C93.6116 31.0394 93.5869 31.1936 93.5367 31.3404C93.4945 31.4658 93.423 31.5794 93.3282 31.6721C93.2387 31.7561 93.1344 31.8229 93.0205 31.8691C92.8521 31.929 92.677 31.9691 92.4991 31.9883C92.2619 32.0134 92.0233 32.0238 91.7848 32.0194L89.4071 32.0245ZM91.0652 28.6972V29.5316H91.4354C91.5875 29.5356 91.7396 29.5234 91.8891 29.4953C91.9845 29.478 92.071 29.4286 92.1341 29.3554C92.192 29.2816 92.2216 29.1897 92.2176 29.0962C92.2211 29.0402 92.2111 28.9842 92.1884 28.9328C92.1657 28.8815 92.131 28.8362 92.0872 28.8008C91.9264 28.7194 91.7455 28.6852 91.5658 28.7024L91.0652 28.6972ZM91.0652 30.2157V31.1901H91.5293C91.7539 31.2068 91.9793 31.1695 92.1863 31.0813C92.2482 31.0417 92.298 30.9859 92.3301 30.9201C92.3623 30.8543 92.3757 30.781 92.3688 30.7081C92.3748 30.6385 92.3642 30.5684 92.3379 30.5036C92.3117 30.4388 92.2704 30.381 92.2176 30.3349C92.022 30.2336 91.8007 30.1921 91.5814 30.2157H91.0652Z" fill="black"/>
<path d="M98.3546 31.5888H99.0064V32.4595H97.7967L97.5517 32.0501C97.3158 32.1257 97.0695 32.1642 96.8217 32.1641C96.5324 32.1728 96.2444 32.1225 95.9754 32.0164C95.7064 31.9104 95.4621 31.7507 95.2574 31.5474C95.0517 31.3375 94.8911 31.0882 94.7853 30.8146C94.6795 30.5411 94.6308 30.2491 94.6422 29.9562C94.6327 29.5732 94.7244 29.1943 94.9081 28.8575C95.0887 28.5462 95.3497 28.2885 95.6641 28.1112C96.0183 27.9247 96.4131 27.8271 96.8139 27.8271C97.2147 27.8271 97.6094 27.9247 97.9636 28.1112C98.2808 28.2907 98.5451 28.5498 98.7301 28.8627C98.9296 29.224 99.027 29.6324 99.0116 30.0444C99.0253 30.3343 98.9749 30.6238 98.8642 30.8923C98.7534 31.1609 98.5848 31.4022 98.3703 31.5992L98.3546 31.5888ZM96.8477 30.9669L96.5297 30.4486L97.2127 30.0495L97.5517 30.5989C97.6048 30.5274 97.6437 30.4465 97.6664 30.3605C97.7029 30.2377 97.7205 30.1102 97.7185 29.9822C97.7342 29.7139 97.6445 29.45 97.4682 29.2462C97.383 29.1598 97.2806 29.092 97.1674 29.0474C97.0542 29.0027 96.9329 28.9822 96.8113 28.9871C96.6908 28.9827 96.5707 29.004 96.4592 29.0496C96.3477 29.0952 96.2472 29.164 96.1647 29.2514C95.9897 29.4539 95.9001 29.7156 95.9144 29.9822C95.906 30.1895 95.9585 30.3948 96.0656 30.573C96.1548 30.7169 96.2857 30.8307 96.441 30.8995C96.5691 30.948 96.7056 30.9709 96.8425 30.9669H96.8477Z" fill="black"/>
<path d="M28.2763 35.5125L50.4834 32.5791L49.8733 31.7446L28.2763 34.4863V35.5125Z" fill="#E9D3B0"/>
<path d="M28.2763 33.4498L49.9202 30.6822L49.8733 29.6768L28.2763 32.4184V33.4498Z" fill="#E9D3B0"/>
<path d="M28.2763 30.0187V31.0553L50.7597 28.2047L51.4376 27.0801L28.2763 30.0187Z" fill="#E9D3B0"/>
<path d="M126.005 35.5125L103.798 32.5791L104.408 31.7446L126.005 34.4863V35.5125Z" fill="#E9D3B0"/>
<path d="M126.005 33.4498L104.361 30.6822L104.408 29.6768L126.005 32.4184V33.4498Z" fill="#E9D3B0"/>
<path d="M126.005 30.0187V31.0553L103.522 28.2047L102.844 27.0801L126.005 30.0187Z" fill="#E9D3B0"/>
<path d="M17.6135 2.22322V0.315956H23.9226V7.43194H17.5613C16.991 6.45261 16.142 5.6628 15.1211 5.16187C14.0999 4.67398 12.9796 4.42574 11.8466 4.43628C11.0155 4.36945 10.1859 4.5811 9.48984 5.03749C9.25591 5.20934 9.06601 5.43357 8.93555 5.69201C8.8051 5.95045 8.73777 6.23581 8.739 6.52495C8.72707 6.93832 8.87442 7.34063 9.15093 7.64962C9.51114 7.99898 9.96913 8.23201 10.4649 8.31819C11.0663 8.45986 12.1578 8.64644 13.7394 8.87794C15.9015 9.19582 17.3284 9.43768 18.0202 9.60353C18.9978 9.83356 19.9434 10.1817 20.8358 10.6401C21.5478 11.04 22.1918 11.549 22.7442 12.1483C23.3577 12.8244 23.8324 13.6131 24.1416 14.4702C24.5003 15.4479 24.677 16.4823 24.663 17.5228C24.692 18.6226 24.4778 19.7152 24.0354 20.7236C23.593 21.7319 22.9333 22.6315 22.1029 23.3587C20.3961 24.8893 18.0584 25.6547 15.0898 25.6547C13.7362 25.6813 12.3898 25.4526 11.1219 24.9809C10.1054 24.6114 9.17812 24.034 8.40009 23.2861V25.1156H2.1431V17.3414H8.57215C9.1252 18.3462 9.91624 19.2018 10.8768 19.8344C11.8362 20.3996 12.9375 20.6818 14.0522 20.6481C14.9337 20.7184 15.8134 20.492 16.5498 20.0054C16.804 19.8059 17.008 19.5503 17.1456 19.2588C17.2831 18.9674 17.3505 18.648 17.3424 18.3262C17.3681 17.8875 17.2245 17.4556 16.9409 17.1186C16.4143 16.7089 15.7885 16.4444 15.1263 16.3515C14.4311 16.1891 13.1971 15.9922 11.4243 15.7607C10.0586 15.6115 8.70727 15.3533 7.38332 14.9885C6.20768 14.6423 5.10023 14.0989 4.10883 13.3818C3.26527 12.7373 2.57015 11.9208 2.0701 10.9873C1.56861 10.0145 1.30707 8.93708 1.30707 7.84398C1.30707 6.75087 1.56861 5.67344 2.0701 4.70061C3.04697 2.87476 4.65966 1.46524 6.60642 0.735762C8.03915 0.225837 9.55343 -0.0200553 11.0749 0.0101652C12.2949 -0.0175458 13.5109 0.157628 14.6727 0.528445C15.7455 0.917267 16.741 1.49097 17.6135 2.22322Z" fill="#E9D3B0"/>
<path d="M39.5024 22.4623C38.0653 22.4649 36.6397 22.2085 35.2946 21.7057C34.0051 21.2414 32.816 20.5379 31.7907 19.6325C30.8555 18.8097 30.0767 17.8267 29.4912 16.7302C28.7692 15.3859 28.393 13.8849 28.3962 12.3611C28.3892 11.2366 28.5926 10.1206 28.9959 9.06999C29.3682 8.09233 29.8964 7.1806 30.5601 6.36976C31.2231 5.58259 31.9875 4.88557 32.8335 4.29664C33.7717 3.64266 34.8083 3.1406 35.9046 2.80917C37.0753 2.4425 38.2958 2.2572 39.5233 2.25979C40.7424 2.24381 41.9566 2.41871 43.121 2.77807C44.1751 3.10507 45.1761 3.58162 46.0931 4.19297C46.9543 4.77838 47.7329 5.47559 48.4082 6.26609C49.8388 7.97404 50.6277 10.1231 50.6398 12.3455C50.6583 13.7685 50.331 15.1748 49.6856 16.4451C48.5321 18.7314 46.5912 20.5301 44.216 21.5139C42.7253 22.1432 41.1219 22.4658 39.5024 22.4623ZM40.5452 7.66546C39.7526 7.66311 38.9717 7.85538 38.2718 8.22519C37.537 8.61688 36.9293 9.20828 36.5199 9.93034C36.0792 10.6543 35.8448 11.4838 35.842 12.33C35.8382 13.1598 36.0617 13.975 36.4886 14.6881C36.8948 15.4042 37.4944 15.9931 38.2197 16.3881C38.9303 16.7766 39.729 16.9782 40.54 16.9738C41.3485 16.9764 42.1446 16.7768 42.8551 16.3933C43.5813 16.0066 44.1818 15.4223 44.5862 14.7089C45.007 13.9972 45.2285 13.1865 45.2275 12.3611C45.2276 11.515 44.9989 10.6844 44.5653 9.95624C44.1607 9.23361 43.554 8.64311 42.8186 8.25629C42.12 7.88087 41.3394 7.68155 40.5452 7.67582V7.66546Z" fill="#E9D3B0"/>
<path d="M77.2216 11.6974C77.2842 9.92835 77.3485 8.15409 77.4145 6.37466C82.7434 5.78382 88.074 5.26554 93.4063 4.81982V11.0392L90.3404 11.1688L89.673 8.54109L87.8533 8.70692V17.5177L89.7043 17.6576V20.8036C86.767 20.5894 83.8297 20.3527 80.8924 20.0935V16.9839L82.8008 17.129V9.14228L80.9497 9.31332L80.2875 11.5782L77.2216 11.6974Z" fill="#E9D3B0" fill-opacity="0.6"/>
<path d="M99.486 21.6481L99.5747 18.1912L101.071 18.1601V7.88779L99.5069 7.95517V4.39459L107.85 3.39949V7.13628L106.113 7.3747V10.5725L112.615 10.1216L112.501 6.75276L110.827 6.88233V3.03669L120.515 1.8291L120.556 5.88723L118.512 6.18784L118.471 17.6781L120.515 17.7662L120.473 21.6118H110.696L110.785 17.8543L112.521 17.8958L112.61 14.2263L106.051 14.6565V17.9372H107.813L107.771 21.7362L99.486 21.6481Z" fill="#E9D3B0" fill-opacity="0.6"/>
<path d="M78.1915 10.7438C78.2541 8.97473 78.3184 7.20048 78.3845 5.42105C83.7133 4.83021 89.0439 4.31193 94.3762 3.86621V10.0856L91.3103 10.2151L90.6429 7.58746L88.8232 7.75331V16.5641L90.6742 16.704V19.85C87.7369 19.6357 84.7996 19.3991 81.8623 19.1399V16.0302L83.7707 16.1754V8.18866L81.9197 8.3597L81.2783 10.6142L78.1915 10.7438Z" fill="#E9D3B0"/>
<path d="M100.456 20.6948L100.545 17.2379L102.041 17.2068V6.93449L100.477 7.00187V3.44128L108.819 2.44618V6.18297L107.083 6.42138V9.61917L113.585 9.16827L113.47 5.79945L111.797 5.92902V2.08338L121.427 0.870605L121.469 4.92875L119.425 5.22934L119.383 16.7196L121.427 16.8077L121.386 20.6534H111.666L111.755 16.8958L113.491 16.9373L113.58 13.2679L107.021 13.698V16.9788H108.783L108.741 20.7777L100.456 20.6948Z" fill="#E9D3B0"/>
<path d="M53.5077 3.94385L63.1539 5.07888V7.89833L61.4749 7.7843L61.4645 13.133C61.4591 13.4832 61.5048 13.8323 61.6001 14.1695C61.7063 14.6677 61.9522 15.1259 62.3092 15.4911C62.676 15.7809 63.1147 15.9671 63.579 16.03C64.0433 16.0929 64.516 16.0303 64.9476 15.8487C65.2621 15.7302 65.5456 15.5424 65.7766 15.2994C66.1683 14.8631 66.3837 14.2982 66.3814 13.7134V8.21966L64.9476 8.08491V5.35876L71.533 6.16727L71.6321 8.46844L70.4485 8.53582C70.4485 10.0907 70.4485 11.4485 70.4485 13.0863C70.5325 14.2468 70.3246 15.4099 69.8437 16.4707C69.6446 16.8634 69.3861 17.2235 69.0772 17.5383C68.596 17.9883 68.031 18.3404 67.4139 18.5749C66.7994 18.8535 66.1606 19.0755 65.5055 19.2383C64.5373 19.4658 63.5486 19.5961 62.5543 19.627C61.716 19.7263 60.8689 19.7263 60.0306 19.627C59.2588 19.5083 58.514 19.2557 57.8302 18.8807C57.3973 18.6635 57.0139 18.36 56.704 17.9892C56.4773 17.7029 56.301 17.3804 56.1826 17.0356C55.8693 16.0969 55.7212 15.1116 55.7446 14.1229L55.7289 7.50962L53.5442 7.25048L53.5077 3.94385Z" fill="#E9D3B0"/>
</g>
<defs>
<clipPath id="clip0_1_550">
<rect width="126" height="37" fill="white"/>
</clipPath>
</defs>
</svg>
