<svg width="161" height="117" viewBox="0 0 161 117" fill="none" xmlns="http://www.w3.org/2000/svg">
<path fill-rule="evenodd" clip-rule="evenodd" d="M28.4268 95.9041C24.2036 94.9074 19.2746 93.2938 15.7122 88.361C12.1498 83.4282 9.96071 75.1779 12.0114 66.0606C14.0643 56.9394 20.3614 46.9569 29.6736 38.4661C38.9858 29.9754 51.3147 22.9828 67.6395 18.5879C83.965 14.1961 104.284 12.4059 117.475 12.4843C130.667 12.5627 136.733 14.5121 140.758 18.605C144.782 22.6978 146.769 28.9326 145.039 34.1003C143.308 39.2681 137.856 43.3695 129.828 45.9348C121.798 48.504 111.189 49.5378 103.183 52.694C95.1767 55.8502 89.775 61.1247 85.9888 66.8757C82.1997 72.6273 80.0224 78.8527 75.7269 83.4831C71.4292 88.1173 65.0111 91.1604 58.6514 93.2595C52.2889 95.3594 45.984 96.5121 41.0719 96.9006C36.162 97.2851 32.6469 96.9014 28.4268 95.9041Z" stroke="#E9D3B0" stroke-width="2" stroke-linecap="round" stroke-linejoin="round"/>
<path d="M149.981 38.0189C150.808 40.7837 150.892 43.6966 150.009 46.3313C148.278 51.5002 142.826 55.6026 134.797 58.1685C126.767 60.7384 116.157 61.7725 108.15 64.9294C100.146 68.0856 94.7438 73.3614 90.9544 79.1144C87.165 84.8674 84.9876 91.0944 80.6917 95.7258C76.3936 100.361 69.975 103.405 63.6148 105.505C57.2517 107.605 50.9463 108.758 46.0338 109.147C41.1235 109.531 37.6111 109.147 33.3876 108.15C29.6179 107.258 25.286 105.879 21.8657 102.086" stroke="#E9D3B0" stroke-width="2" stroke-linecap="round" stroke-linejoin="round"/>
<path d="M12.1821 80.7527C12.9468 83.7646 13.7153 86.7789 14.6134 89.6328C15.5115 92.4866 16.5451 95.1785 17.7734 97.2313C19.0009 99.2808 20.426 100.691 21.8481 102.101" stroke="#E9D3B0" stroke-width="2" stroke-linecap="round" stroke-linejoin="round"/>
<path d="M143.246 21.7583C144.742 24.1344 146.242 26.5097 147.368 29.2203C148.496 31.9301 149.25 34.9752 150.004 38.0202" stroke="#E9D3B0" stroke-width="2" stroke-linecap="round" stroke-linejoin="round"/>
<path fill-rule="evenodd" clip-rule="evenodd" d="M40.3624 55.3682C37.5505 57.3661 35.0384 59.5949 33.4258 61.8218C31.8145 64.0415 31.1041 66.2522 31.2378 68.5289C31.3736 70.8016 32.3556 73.1363 34.2516 74.7948C36.1463 76.4604 38.9541 77.4466 42.5138 76.8182C46.0728 76.1866 50.3859 73.9365 53.7512 71.0904C57.118 68.2371 59.5414 64.7799 60.8279 61.6337C62.1123 58.4915 62.2559 55.6577 61.4695 53.6914C60.6772 51.7265 58.951 50.6265 56.7867 50.1291C54.6195 49.6323 52.0059 49.73 49.1452 50.6635C46.2814 51.5978 43.1735 53.3672 40.3624 55.3682Z" stroke="#E9D3B0" stroke-width="2" stroke-linecap="round" stroke-linejoin="round"/>
<path fill-rule="evenodd" clip-rule="evenodd" d="M39.3292 60.8446C37.7039 62.0018 36.2513 63.2911 35.319 64.5744C34.3897 65.857 33.9778 67.1343 34.0565 68.4501C34.1343 69.7627 34.7028 71.114 35.7979 72.0729C36.89 73.0325 38.5132 73.6056 40.5711 73.2398C42.6269 72.878 45.1202 71.5766 47.0673 69.9299C49.0107 68.2807 50.4108 66.2856 51.1535 64.4657C51.897 62.6489 51.9809 61.0114 51.5247 59.8783C51.0678 58.742 50.073 58.1062 48.819 57.8189C47.5651 57.5315 46.057 57.5879 44.404 58.1287C42.7503 58.6662 40.9515 59.6881 39.3292 60.8446Z" stroke="#E9D3B0" stroke-width="2" stroke-linecap="round" stroke-linejoin="round"/>
<path fill-rule="evenodd" clip-rule="evenodd" d="M35.0991 42.6697C31.9227 44.9288 28.2864 48.2281 25.3874 52.0685C22.4856 55.9095 20.3219 60.2948 18.8932 64.2581C17.4646 68.2214 16.7754 71.7684 17.8502 75.3098C18.9251 78.8512 21.7625 82.3941 26.1944 84.331C30.6263 86.2678 36.6496 86.5993 42.4247 86.6161C48.1977 86.6367 53.7245 86.3386 58.5856 85.0736C63.4445 83.8126 67.6398 81.5807 69.9578 78.3466C72.2737 75.1165 72.7092 70.8848 72.2775 65.7313C71.8465 60.5811 70.5461 54.513 69.2651 49.9418C67.9842 45.3706 66.719 42.2939 64.378 40.0889C62.034 37.8846 58.6076 36.5502 54.9858 36.3423C51.361 36.1351 47.5349 37.0556 44.2637 38.1254C40.9925 39.1951 38.2754 40.4107 35.0991 42.6697Z" stroke="#E9D3B0" stroke-width="2" stroke-linecap="round" stroke-linejoin="round"/>
<path fill-rule="evenodd" clip-rule="evenodd" d="M64.5906 25.5795C66.1973 24.3958 70.2661 23.4167 76.079 22.3482C81.8911 21.2766 89.4495 20.1117 95.7378 19.5862C102.025 19.0575 107.048 19.1635 109.363 20.7183C111.678 22.273 111.285 25.2796 109.108 28.9031C106.93 32.5233 102.961 36.7618 97.9983 38.8485C93.0355 40.9351 87.0751 40.8674 81.356 38.9602C75.639 37.0491 70.1655 33.2946 67.0014 30.7249C63.8373 28.1552 62.981 26.7638 64.5906 25.5795Z" stroke="#E9D3B0" stroke-width="2" stroke-linecap="round" stroke-linejoin="round"/>
<path fill-rule="evenodd" clip-rule="evenodd" d="M78.1393 45.7969C76.9577 46.786 76.1755 48.52 75.9563 50.9901C75.737 53.4603 76.0821 56.6594 76.4665 59.57C76.8479 62.4812 77.2716 65.1031 78.4107 65.6257C79.5498 66.1484 81.4051 64.575 82.8459 62.8902C84.2897 61.2048 85.3198 59.4111 86.8917 57.9059C88.4636 56.4007 90.5788 55.1904 91.9112 53.7667C93.2465 52.3422 93.7997 50.7076 93.4718 49.3565C93.1432 48.0022 91.9344 46.9345 89.9555 46.1441C87.9766 45.3536 85.2276 44.8404 83.0615 44.7079C80.8976 44.5714 79.3209 44.8078 78.1393 45.7969Z" stroke="#E9D3B0" stroke-width="2" stroke-linecap="round" stroke-linejoin="round"/>
<path fill-rule="evenodd" clip-rule="evenodd" d="M117.257 19.3515C118.759 18.6155 121.308 18.4688 124.374 18.8582C127.44 19.2475 131.022 20.1665 133.904 21.3968C136.787 22.627 138.967 24.1693 139.939 26.2337C140.915 28.2973 140.684 30.8863 138.395 33.8785C136.105 36.8675 131.763 40.2615 127.514 42.2714C123.264 44.2781 119.109 44.8998 116.778 44.5244C114.449 44.145 113.942 42.7653 113.872 40.5315C113.804 38.2937 114.172 35.2018 114.409 32.094C114.645 28.9862 114.748 25.8664 115.026 23.6406C115.305 21.4148 115.757 20.0869 117.257 19.3515Z" stroke="#E9D3B0" stroke-width="2" stroke-linecap="round" stroke-linejoin="round"/>
</svg>
