<svg width="25" height="25" viewBox="0 0 25 25" fill="none" xmlns="http://www.w3.org/2000/svg">
<path fill-rule="evenodd" clip-rule="evenodd" d="M6.59997 0.840332H18.1251C21.3033 0.840332 23.88 3.41697 23.88 6.59521V18.1267C23.88 21.3037 21.3033 23.8803 18.1251 23.8803H6.59485C3.41661 23.8803 0.839966 21.3037 0.839966 18.1255V6.60033C0.839966 3.41953 3.41917 0.840332 6.59997 0.840332V0.840332Z" stroke="#C4504C" stroke-width="1.5" stroke-linecap="round" stroke-linejoin="round"/>
<path d="M10.6755 9.34473H12.2307V17.122H12.2281C10.6269 17.122 8.86686 16.1492 7.61886 14.3572C5.74494 11.7306 5.23294 9.74537 5.23294 9.34601" stroke="#C4504C" stroke-width="1.5" stroke-linecap="round" stroke-linejoin="round"/>
<path d="M18.3222 17.1222C18.3222 17.1222 17.7564 15.9292 16.6083 14.6172C15.8428 13.72 14.7651 13.2348 13.7846 13.2348C14.7651 13.2348 15.8428 12.7484 16.6083 11.8524C17.7564 10.5392 18.3222 9.34619 18.3222 9.34619" stroke="#C4504C" stroke-width="1.5" stroke-linecap="round" stroke-linejoin="round"/>
<path d="M13.7846 13.2362H12.2281" stroke="#C4504C" stroke-width="1.5" stroke-linecap="round" stroke-linejoin="round"/>
</svg>
